<?xml version="1.0" encoding="utf-8"?>
<!-- Generator: Adobe Illustrator 19.0.0, SVG Export Plug-In . SVG Version: 6.00 Build 0)  -->
<svg version="1.1" id="Layer_1" xmlns="http://www.w3.org/2000/svg" xmlns:xlink="http://www.w3.org/1999/xlink" x="0px" y="0px"
	 viewBox="0 0 792 206.9" style="enable-background:new 0 0 792 206.9;" xml:space="preserve">
<style type="text/css">
	.st0{fill:#FEFEFE;}
	.st1{fill:#F6931E;}
	.st2{fill:#58585A;}
	.st3{fill:#FCFCFC;}
	.st4{fill:#FEFDFC;}
	.st5{fill:#FEE3C6;}
	.st6{fill:#FEE2C4;}
	.st7{fill:#FEF9F4;}
	.st8{fill:#FDEDDA;}
	.st9{fill:#FEF9F3;}
	.st10{fill:#FEFAF4;}
	.st11{fill:#FDE9D0;}
	.st12{fill:#FEF6EE;}
	.st13{fill:#FDE6CD;}
	.st14{fill:#FDE7CF;}
	.st15{fill:#FDEFDF;}
	.st16{fill:#FDEEDC;}
	.st17{fill:#FDF2E4;}
	.st18{fill:#FDEEDB;}
	.st19{fill:#FEF3E8;}
	.st20{fill:#FDF6ED;}
	.st21{fill:#FEE6CC;}
	.st22{fill:#FDEBD6;}
	.st23{fill:#FEF3E7;}
	.st24{fill:#FDEAD3;}
	.st25{fill:#FDEBD7;}
	.st26{fill:#FDEEDD;}
	.st27{fill:#FDF1E3;}
	.st28{fill:#FDEEDE;}
	.st29{fill:#FDF2E5;}
	.st30{fill:#FCF1E3;}
	.st31{fill:#F9F2EA;}
	.st32{fill:#FEFAF5;}
	.st33{fill:#FDE8CE;}
	.st34{fill:#FDE8CF;}
	.st35{fill:#FEE1C2;}
	.st36{fill:#FEFDFB;}
	.st37{fill:#FDE2C4;}
	.st38{fill:#FEF7EE;}
	.st39{fill:#FEFAF7;}
	.st40{fill:#FDF2E3;}
	.st41{fill:#FEF9F5;}
	.st42{fill:#FDE8D0;}
	.st43{fill:#FEE2C3;}
	.st44{fill:#FDE7CD;}
	.st45{fill:#FDEAD2;}
	.st46{fill:#FDEDDB;}
	.st47{fill:#FEF3E6;}
	.st48{fill:#FDF3E7;}
	.st49{fill:#FDEFDE;}
	.st50{fill:#FCF6ED;}
	.st51{fill:#FEF4E8;}
	.st52{fill:#FDF6EC;}
	.st53{fill:#FEF6ED;}
	.st54{fill:#FEF2E5;}
	.st55{fill:#FEDDB9;}
	.st56{fill:#FDD8B0;}
	.st57{fill:#FDD4A6;}
	.st58{fill:#FDD3A5;}
	.st59{fill:#FCCF9C;}
	.st60{fill:#FCCA93;}
	.st61{fill:#FCC68A;}
</style>
<g>
	<path class="st0" d="M396.4,207.4c-131.7,0-263.4,0-395,0c-0.9,0-1.1-0.2-1.1-1.1c0-68.3,0-136.6,0-205c0-0.9,0.2-1.1,1.1-1.1
		c263.4,0,526.7,0,790.1,0c0.9,0,1.1,0.2,1.1,1.1c0,68.3,0,136.6,0,205c0,0.9-0.2,1.1-1.1,1.1C659.7,207.4,528,207.4,396.4,207.4z"
		/>
	<path class="st1" d="M35.3,197.1c-6.1-0.2-11.4-2.5-16-6.4c-4.1-3.4-6.7-7.8-7.5-13.2c-0.1-1-0.2-2-0.4-3.1c-0.1-0.9-0.1-1.7,0-2.6
		c0.5-0.9,1-0.7,1.5,0c0.5,0.8,0.7,1.7,1,2.6c1.4,4.4,3.5,8.4,7.1,11.4c3.6,3,7.8,4.3,12.4,4.3c1,0.2,1.9,0.2,2.9,0
		c3.5,0,6.6-1.3,9.6-3c4.1-2.3,7.6-5.4,10.6-8.9c5.7-6.5,10.2-13.7,14.2-21.3c2.8-5.4,5.4-10.9,7.8-16.4c2.1-4.9,4.1-9.9,5.8-14.9
		c2.5-7.1,5-14.2,7.4-21.4c2.3-6.6,4.5-13.1,6.7-19.7c0.6-1.8,1.3-3.6,1.9-5.5c0.2-0.6,0.2-1.1-0.6-1.3c-1.8-0.5-3.5-1.3-5.1-2.4
		c-2.9-2.2-4.2-5.1-4.3-8.7c-0.1-2.9,0-3,2.9-2.5c3,0.5,5.9,1.1,8.9,1.6c2.3,0.4,3.1-0.1,4.2-2.3c1.2-2.4,1.9-5,2.7-7.5
		c1.6-5,3.2-10,5.1-14.9c2-5.4,4.2-10.7,6.9-15.8c1.6-2.9,3.3-5.7,5.6-8.2c3.1-3.2,6.7-5.2,11.2-5.8c0.6-0.2,1.3,0.1,2-0.2
		c0.2,0,0.4,0,0.6,0c0.6,0.3,1.3,0,1.9,0.2c2.4,0.4,4.7,1.3,6.7,2.8c2.3,1.8,3.6,4.2,3.6,7.1c0,0.6,0,1.2,0,1.8
		c-0.3,0.5,0,1-0.2,1.5c-0.4,1.7-0.7,3.5-1.8,5c-1.1,1.4-2.5,2.2-4.3,2.3c-0.4,0.1-0.8,0.1-1.2,0c-1.8-0.3-2-0.8-1.4-2.4
		c0.9-2.2,1.3-4.6,1.4-7c0.2-0.8,0.2-1.7,0-2.5c0-1.2-0.3-2.3-0.9-3.4c-0.7-1.1-2-1.5-3.4-1.2c-2.9,0.7-4.8,2.7-6.6,4.9
		c-5.6,6.9-9.2,14.7-12.2,23c-2.1,5.7-4.3,11.4-6.1,17.2c-0.2,0.7-0.4,1.4-0.6,2c-0.3,1.4,0.5,2.6,2,2.6c1.3,0.1,2.6,0,4,0
		c1.7-0.2,3.4,0.1,5.1-0.2c1.7,0,3.5-0.1,5.2-0.1c1.5-0.2,2.9,0.1,4.4-0.2c0.8-1,1.6-2.1,2.5-3.1c2.9-3.1,6.5-4.9,10.7-5.6
		c0.4-0.2,0.8,0.1,1.2-0.2c1.3,0,2.7,0,4,0c0.4,0.2,0.9,0,1.3,0.2c2.8,0.5,5.4,1.3,7.8,2.9c3.6,2.4,5.9,5.9,7.3,9.9
		c0.5,1.5,1.4,2.1,2.9,2.4c2.2,0.4,4.4,1,6.4,2.1c1.5,0.9,1.9,1.7,1.6,3.2c-0.5,2.2-1.4,2.7-3.5,2.2c-1.1-0.3-2.2-0.4-3.3-0.5
		c-0.2,0-0.5-0.1-0.5,0.3c0.1,0.4-0.1,0.8,0.2,1.2c0,0.6,0.1,1.1,0.1,1.7c0.2,0.7-0.1,1.5,0.2,2.2c0,1.2,0,2.4,0,3.6
		c-0.3,0.9,0,1.8-0.2,2.7c0,0.5,0,0.9-0.1,1.4c-0.2,0.4,0,0.8-0.2,1.2c-0.9,7.2-2.8,14.1-6.3,20.5c-3.2,5.8-7,11-12.7,14.5
		c-3.2,2-6.6,3.1-10.3,3.5c-1.7,0.1-3.3,0.1-5,0c-3.4-0.2-6.6-1.1-9.3-3.2c-2-1.5-3.3-3.6-4.3-5.8c-0.7-1.7-1.2-3.6-1.3-5.5
		c-0.2-0.4,0-0.9-0.2-1.2c0-1.8,0-3.6,0-5.4c0.2-0.4,0-0.8,0.2-1.2c0.4-4.9,2-9.4,3.9-13.9c1.4-3.4,3.3-6.4,5.4-9.4
		c0.7-0.9,2-1.5,2.1-2.5c0.1-1-0.9-2-1.2-3.1c-1-3.2-1.3-6.4-0.8-9.9c-2.1,0.7-4.1,1.4-6.1,2c-5.8,1.9-11.5,3.9-17.4,5.4
		c-0.5,0.1-0.6,0.3-0.7,0.7c-2.8,10.3-6.6,20.4-9.7,30.7c-3.3,11-7.1,21.9-11.5,32.5c-2.9,7.2-6.1,14.3-9.8,21.2
		c-3.9,7.3-8.3,14.2-13.9,20.4c-4.3,4.7-9.1,8.6-14.8,11.4c-4,1.9-8.2,3-12.6,3.2C37.2,197.2,36.2,197.2,35.3,197.1z"/>
	<path class="st2" d="M743.1,60.5c1.2,0,2.4,0,3.5,0c0.7,0.3,1.5,0,2.2,0.2c6,0.7,11.6,2.3,16.5,5.8c7.2,5.1,11.8,11.9,14.2,20.3
		c0.7,2.3,1,4.7,1.5,7.1c0.2,0.4-0.1,0.9,0.2,1.2c0,0.5,0.1,1.1,0.1,1.6c0.1,1.2,0,2.4,0.1,3.6c0,0.6-0.2,0.9-0.8,0.8
		c-0.3,0-0.6,0-0.8,0c-20.4,0-40.8,0-61.2,0c-0.5,0-1-0.1-1.4,0.1c0.1,3.3,0.8,6.5,2.1,9.5c3,7.2,8.3,12.3,15.7,14.9
		c2.8,1,5.7,1.5,8.7,1.4c0.5,0.2,1,0.2,1.5,0c0.6,0,1.3,0,1.9-0.1c0.4-0.2,0.8,0.1,1.2-0.2c3.3-0.2,6.3-1.5,9.1-3
		c2.2-1.2,4.2-2.6,5.8-4.4c2.2-2.3,4.1-4.9,5.5-7.9c0.1-0.3,0.4-0.2,0.6-0.2c3.1,0,6.2,0,9.3,0c0.2,0,0.4,0,0.6,0.1
		c-2.2,5.3-5.1,10.1-9.1,14.2c-5.8,5.8-12.7,9.2-20.9,10.1c-0.4,0.1-0.8-0.1-1.2,0.2c-0.9,0-1.7,0-2.6,0.1c-0.4,0.1-0.8,0.1-1.2,0
		c-0.9,0-1.9-0.1-2.8-0.1c-0.4-0.2-0.9,0-1.3-0.2c-4.2-0.3-8.2-1.5-12-3.4c-2.8-1.4-5.3-3.3-7.7-5.4c-3.7-3.2-6.5-6.9-8.8-11.1
		c-1.5-2.7-2.4-5.7-3.2-8.8c-0.5-2.1-0.7-4.2-0.8-6.4c-0.1-1.7-0.1-3.3,0-5c0-0.5,0-1.1,0.1-1.6c0.2-0.4,0-0.8,0.2-1.2
		c0.3-4.4,1.6-8.5,3.5-12.3c1.2-2.4,2.8-4.7,4.5-6.8c2.4-2.9,5.2-5.4,8.3-7.4c4-2.6,8.4-4.1,13-4.9c1.2-0.2,2.5-0.4,3.7-0.5
		C741.6,60.5,742.4,60.8,743.1,60.5z"/>
	<path class="st2" d="M637.2,102.3c0.3,5.1,2.2,9.7,5.1,13.8c3.7,5.2,8.7,8.8,15,10.3c1.9,0.5,3.8,0.7,5.8,0.6
		c0.4,0.1,0.9,0.2,1.3,0c5.7,0.1,10.7-1.8,15.3-5.1c3.7-2.7,6.2-6.3,8.2-10.4c3.1-0.1,6.3,0,9.4,0c0.4,0,0.9-0.1,0.7,0.6
		c-1.4,3.3-2.9,6.5-5,9.5c-2.9,4.1-6.5,7.3-10.9,9.8c-4.1,2.4-8.5,3.6-13.2,4.2c-0.5,0.2-1-0.1-1.5,0.2c-2.2,0-4.4,0-6.6,0
		c-0.4-0.2-0.8,0-1.2-0.2c-6.4-0.6-12.2-2.9-17.3-6.7c-4-3-7.2-6.7-9.8-11c-2.2-3.5-3.6-7.3-4.5-11.3c-0.4-1.7-0.4-3.4-0.6-5.1
		c-0.1-2.1-0.1-4.1,0-6.2c0.2-3.4,0.8-6.7,1.9-9.8c1.6-4.6,4.1-8.7,7.4-12.5c3.3-3.8,7.2-6.8,11.7-9c3.9-2,8.2-2.9,12.5-3.3
		c0.6-0.2,1.3,0.1,1.9-0.2c1.1,0,2.2,0,3.3,0c0.6,0.3,1.3,0,1.9,0.2c6.9,0.8,13.2,3.1,18.6,7.5c3.6,2.9,6.5,6.4,8.8,10.4
		c1.1,1.9,2,3.8,2.8,6c-3.3,0-6.4,0-9.6,0c-1.2,0-1.4-1.2-1.8-1.9c-3.2-5.4-7.5-9.4-13.4-11.7c-1.8-0.7-3.7-1.1-5.6-1.4
		c-0.4-0.3-0.8,0-1.2-0.2c-0.5,0-0.9,0-1.4-0.1c-1.1-0.2-2.3-0.2-3.4,0c-5.4,0.2-10.1,2.1-14.2,5.5c-5.2,4.3-8.5,9.8-9.9,16.4
		c-0.2,1-0.5,2-0.4,3.1c-0.2,0.4,0,0.8-0.2,1.2c-0.1,1.8-0.1,3.5,0,5.3C637.2,101.3,636.9,101.8,637.2,102.3z"/>
	<path class="st2" d="M548.9,135.7c-0.5,0-1,0-1.4-0.1c-0.4-0.3-0.8,0-1.2-0.2c-2.7-0.3-5.4-0.9-7.9-2c-0.4-0.2-0.9,0-1.2-0.3
		c-0.5-0.3-0.9-0.5-1.4-0.7c-0.3-0.1-0.5-0.3-0.8-0.5c-0.2-0.1-0.3-0.2-0.5-0.3c-0.2-0.2-0.5-0.3-0.7-0.5c-0.3-0.1-0.5-0.3-0.7-0.5
		c-0.1-0.1-0.2-0.2-0.3-0.3c-0.3-0.2-0.6-0.4-0.8-0.7c-0.6-0.7-1.4-1.4-2-2.1c-0.3-0.3-0.5-0.7-0.7-1c-0.1-0.3-0.3-0.5-0.5-0.8
		c-0.2-0.3-0.3-0.6-0.5-0.9c-0.2-0.3-0.3-0.5-0.5-0.8c-0.2-0.3-0.3-0.7-0.5-1c-0.3-0.5-0.5-1-0.8-1.5c-0.8-2.7-1.9-5.3-2.3-8
		c-0.2-1-0.5-2-0.5-3.1c-0.1-0.8-0.2-1.6-0.2-2.4c0-0.5,0-1-0.2-1.6c-0.1-0.5-0.1-1-0.1-1.5c0-0.2,0-0.4,0-0.7c0-13.3,0-26.7,0-40
		c0-0.6-0.1-1.3,0.2-1.9c0.2-0.4,0.6-0.4,1-0.4c0.5-0.1,1,0,1.6,0c1.2,0,2.4,0,3.7,0c0.4,0,0.8,0,1.3,0c0.3,0,0.6,0,0.9,0
		c0.2,0,0.4,0.1,0.6,0.2c0.1,0.1,0.2,0.2,0.3,0.4c0.2,4,0.2,8,0.1,12c-0.1,9.6,0,19.2,0,28.8c0,0.3,0.1,0.6,0.1,0.8
		c0.3,1.1-0.1,2.2,0.2,3.2c0.1,0.9,0.1,1.7,0.3,2.6c0.1,0.9,0.3,1.7,0.5,2.6c0.1,0.9,0.4,1.7,0.7,2.6c0.5,1.5,1.1,3,2,4.3
		c0.2,0.4,0.5,0.8,0.8,1.2c0.2,0.2,0.4,0.5,0.6,0.7c0.1,0.1,0.2,0.2,0.3,0.3c0.1,0.1,0.2,0.2,0.3,0.3c0.2,0.2,0.4,0.4,0.6,0.6
		c0.2,0.2,0.5,0.5,0.8,0.7c0.4,0.3,0.8,0.5,1.1,0.7c0.3,0.2,0.6,0.3,0.9,0.5c0.5,0.3,1,0.4,1.3,0.8c1.7,0.8,3.4,1.2,5.2,1.2
		c0.4,0.2,0.8,0,1.2,0.2c1.8,0.2,3.5,0.2,5.3,0c0.4-0.2,0.8,0.1,1.2-0.2c3.4-0.3,6.5-1.6,9.2-3.6c3.1-2.3,5.5-5.2,6.8-8.9
		c0.8-2.2,1.2-4.5,1.3-6.9c0.2-0.6,0-1.2,0.2-1.7c0-0.9,0-1.9,0.1-2.8c0.2-0.4,0.1-0.9,0.1-1.3c0-12.6,0-25.2,0-37.8
		c0-0.4-0.2-0.9,0.2-1.3c2.7,0,5.4,0.1,8,0c0.9,0,1,0.3,1,1.1c0,23.1,0,46.2,0,69.3c0,0.8-0.2,1.1-1,1.1c-2.7,0-5.4,0-8,0
		c-0.4-1.2-0.1-2.3-0.2-3.5c0-1,0-2.1,0-3.1c0-0.2,0.1-0.6-0.4-0.6c-4.1,4.8-9.3,7.8-15.6,8.7c-0.4,0.2-0.8-0.1-1.2,0.2
		c-0.4,0-0.8,0-1.2,0.1C553.4,135.8,551.1,135.7,548.9,135.7z"/>
	<path class="st2" d="M412.1,60.7c0.6,0,1.1,0.1,1.7,0.1c0.5-0.2,0.9-0.1,1.4-0.1c0.4,0.1,0.8,0.2,1.2,0.2c0.5,0.1,1,0.2,1.4,0.4
		c0.2,0,0.3,0.1,0.5,0.1c0.1,0,0.2,0.1,0.3,0.1c0.2,0.1,0.4,0.2,0.6,0.3c0.4,0.1,0.8,0.3,1.1,0.4c0.2,0.1,0.4,0.2,0.5,0.3
		c0.2,0.1,0.4,0.2,0.6,0.3c1.3,0.6,2.4,1.4,3.5,2.3c0.3,0.2,0.5,0.5,0.8,0.8c0.3,0.3,0.5,0.5,0.8,0.8c0.3,0.3,0.5,0.6,0.7,0.9
		c0.1,0.1,0.2,0.2,0.3,0.4c0.1,0.1,0.2,0.2,0.3,0.4c0.4,0.5,0.7,1.1,1,1.7c0.9,1.6,1.5,3.4,2,5.2c0.1,0.6,0.2,1.2,0.4,1.8
		c0.1,0.3,0.1,0.6,0.1,0.9c0,0.4,0,0.9,0.2,1.3c0,0.1,0.1,0.3,0.1,0.4c0,0.7-0.2,1.3-1,1.3c-0.7,0.1-1.3,0-2,0c-1.7,0-3.4,0-5.1,0
		c-0.5,0-1,0-1.5-0.1c-1-0.3-0.9-1.2-1.1-2c0-0.6-0.3-1.2-0.4-1.7c-0.1-0.5-0.4-0.9-0.5-1.4c-0.5-1.3-1.4-2.3-2.4-3.2
		c-0.3-0.2-0.6-0.5-1-0.8c-0.2-0.1-0.4-0.2-0.7-0.3c-0.3-0.1-0.5-0.3-0.8-0.4c-0.3-0.1-0.6-0.2-0.9-0.3c-0.3-0.1-0.7-0.2-1-0.2
		c-0.6-0.2-1.3-0.1-2-0.2c-6.1-0.8-10.9,4.8-10.9,9.7c0,4.5,1.9,7.6,5.7,9.7c0.6,0.5,1.3,0.7,1.9,1c0.2,0.1,0.4,0.2,0.6,0.3
		c0.4,0.2,0.8,0.3,1.2,0.5c0.2,0.1,0.5,0.2,0.7,0.3c0.2,0.1,0.5,0.2,0.8,0.2c0.3,0.1,0.5,0.2,0.8,0.2c1.2,0.4,2.5,0.7,3.7,1.1
		c0.4,0.2,0.9,0.2,1.3,0.4c0.5,0.2,0.9,0.4,1.4,0.6c0.3,0.1,0.6,0.2,0.9,0.3c0.5,0.2,1,0.4,1.5,0.6c1.6,0.9,3.3,1.8,4.7,2.9
		c0.6,0.7,1.4,1.1,2,1.7c0.4,0.5,0.7,1,1.2,1.5c0.2,0.2,0.4,0.5,0.5,0.8c0.2,0.3,0.5,0.7,0.7,1c0.1,0.2,0.3,0.5,0.4,0.7
		c0.2,0.5,0.5,1,0.7,1.5c0.3,0.7,0.6,1.4,0.8,2.2c0.6,1.7,0.6,3.5,0.9,5.2c0.1,0.4,0.1,0.8,0.1,1.2c0,0.5,0,0.9,0,1.4
		c0,0.7-0.2,1.4-0.2,2.1c0,0.3,0,0.5-0.1,0.7c-0.1,0.3-0.2,0.6-0.2,0.9c-0.1,0.5-0.2,1-0.3,1.6c-0.2,0.6-0.3,1.1-0.5,1.7
		c-0.7,1.7-1.5,3.3-2.6,4.8c-0.4,0.4-0.7,0.8-1,1.2c-0.2,0.2-0.4,0.4-0.5,0.5c-0.2,0.2-0.5,0.5-0.7,0.7c-0.2,0.2-0.5,0.5-0.7,0.7
		c-0.2,0.2-0.4,0.3-0.6,0.5c-0.2,0.1-0.3,0.2-0.5,0.4c-0.9,0.8-2,1.5-3,2c-0.3,0.2-0.7,0.3-1,0.5c-0.2,0.1-0.4,0.2-0.5,0.3
		c-0.3,0.2-0.6,0.3-1,0.5c-0.2,0.1-0.5,0.2-0.7,0.3c-0.3,0.1-0.5,0.2-0.8,0.3c-0.5,0.2-1.1,0.3-1.6,0.5c-0.4,0.2-0.8-0.3-1.2,0
		c-0.8,0.1-1.6,0.2-2.4,0.3c-1.8,0.1-3.7,0.1-5.5,0c-3.5-0.3-6.8-1.3-9.8-3.2c-3-1.9-5.2-4.6-6.9-7.6c-1.5-2.7-2.2-5.6-2.9-8.6
		c-0.1-0.5-0.1-1-0.1-1.5c-0.2-0.5,0.1-1-0.2-1.5c0-1.9,0-1.9,2-1.9c2.5,0,4.9,0,7.4,0c0.2,0.6-0.1,1.2,0.2,1.7
		c-0.1,5.9,4.3,12.5,10.5,13.8c0.7,0.1,1.3,0.1,2,0.1c0.6-0.2,1.1-0.2,1.7-0.3c0.3,0,0.6,0,0.9,0c0.6,0,1.1-0.2,1.6-0.4
		c0.3-0.1,0.6-0.1,1-0.2c0.3-0.1,0.5-0.2,0.8-0.2c0.3-0.1,0.7-0.2,1-0.5c0.4-0.3,0.8-0.4,1.2-0.7c1-0.8,2.1-1.6,2.8-2.8
		c0.3-0.5,0.7-0.9,0.9-1.5c0.1-0.4,0.3-0.8,0.5-1.2c0.2-0.6,0.4-1.2,0.5-1.8c0.1-1.5,0.3-2.9,0-4.4c-0.3-2-1.1-3.7-2.4-5.3
		c-0.3-0.5-0.7-1-1.3-1.3c-0.4-0.4-0.8-0.7-1.2-1c-0.4-0.3-0.8-0.5-1.2-0.8c-1.3-0.8-2.6-1.4-4-2c-0.4-0.2-0.8-0.4-1.2-0.5
		c-0.4-0.2-0.8-0.4-1.2-0.5c-0.3-0.1-0.5-0.2-0.8-0.3c-0.4-0.1-0.8-0.3-1.2-0.5c-0.3-0.1-0.6-0.2-0.9-0.3c-0.5-0.2-1-0.4-1.6-0.6
		c-0.5-0.2-1.1-0.3-1.5-0.8c-2.1-1.1-4.2-2.1-6.2-3.4c-3.8-2.6-6.1-6-6.8-10.6c-0.1-0.9-0.1-1.7-0.3-2.6c-0.1-1.1-0.1-2.2,0-3.3
		c0.2-5.6,2.8-10,6.9-13.6c2.9-2.6,6.4-4.1,10.3-4.6c0.8-0.1,1.6-0.2,2.3-0.3C410.3,60.6,411.2,60.6,412.1,60.7z"/>
	<path class="st1" d="M297.3,64.5c2.7,0.5,5.2,1.5,7.3,3.3c2.1,1.7,3.4,3.8,4,6.4c0.2,0.4-0.1,0.8,0.2,1.2c0,0.5,0,0.9,0,1.4
		c-0.2,0.4,0,0.8-0.2,1.2c-1.1,5.8-4.7,9.9-9.1,13.5c-2.7,2.3-5.6,4.3-8.8,5.9c-2.9,1.5-5.9,2.5-9.1,3c-0.4,0.2-0.8-0.1-1.2,0.2
		c-0.8,0-1.6,0-2.4,0c-0.7,0-1.5,0-1.6-0.7c-0.1-0.7,0.5-1.3,1.3-1.6c2.6-0.8,5.2-1.8,7.6-3c3-1.5,5.9-3.2,8.5-5.4
		c2.7-2.2,4.8-4.9,6.3-8c1-2.1,1.5-4.2,1.8-6.5c0.2-0.4,0-0.8,0.2-1.2c0.1-0.7,0-1.4-0.1-2.1c-0.4-1.9-1-2.1-2.8-1.6
		c-2.5,0.7-4.5,2.4-6.6,4c-3.7,2.9-7.2,6.2-10.3,9.8c-3.7,4.2-6.9,8.8-9.7,13.6c-2.5,4.2-4.7,8.6-6.1,13.4c-0.6,2.2-1.3,4.3-1.2,6.6
		c-0.2,0.8-0.2,1.6,0,2.5c0,2.3,0.5,4.5,2.2,6.2c1,0.9,2.1,1.4,3.4,1.5c2.9,0.2,5.6-0.5,8.1-1.6c4.3-2,8.2-4.6,11.6-8
		c1.5-1.5,3.2-2.9,4.7-4.4c2.3-2.4,4.7-4.8,7-7.2c3-3.2,5.9-6.4,9-9.4c0.5-0.5,0.9-0.6,1.4-0.3c0.5,0.3,0.6,0.7,0.5,1.3
		c-0.3,1.9-1.8,3.3-2.8,4.8c-3.5,5-7.2,9.8-11.2,14.3c-4.5,5.1-9.4,9.7-15.3,13.1c-2.2,1.3-4.7,2.1-7.3,2.5c-1.5,0.1-3,0.1-4.5,0
		c-2.9-0.2-5.6-0.7-8.2-2c-4.3-2.2-6.5-5.9-7.4-10.5c-0.5-2.7-0.5-5.5-0.2-8.2c0.4-4,1.7-7.8,3.2-11.5c2.7-6.7,6.5-12.7,10.6-18.6
		c2.7-3.9,5.8-7.5,9.3-10.7c3.9-3.6,8.3-6.3,13.7-7C294.8,64.4,296.1,64.4,297.3,64.5z"/>
	<path class="st1" d="M221,122.4c0.3-5.4,1.9-10.4,3.5-15.5c1.5-4.7,3.6-9.2,5.6-13.8c1.9-4.5,3.7-9,5.6-13.4
		c0.3-0.8,0.8-1.6,1.1-2.5c0.2-0.5,0.4-0.9-0.5-1.3c-2.5-1.1-4.7-2.7-5.9-5.3c-0.7-1.5-0.7-3-0.4-4.5c0.1-0.6,0.5-1,1.3-0.6
		c2.7,1.2,5.6,1.5,8.4,1.9c0.7,0.1,1.1-0.2,1.4-0.9c1.4-3.6,3-7.1,4.4-10.7c1.2-3.2,2.6-6.4,2.3-10c-0.1-0.9-0.1-1.9-0.7-2.8
		c-0.4-0.6-0.9-0.8-1.6-0.6c-1.2,0.3-2.4,0.5-3.6,0.9c-0.8,0.3-0.8-0.1-0.8-0.6c-0.1-1.1,0.5-1.8,1.3-2.2c3.7-1.9,7.7-2.2,11.4,0.2
		c1.8,1.2,2.5,3,3.1,4.9c0.2,0.5,0.2,1,0.3,1.5c0.2,0.4,0,0.9,0.2,1.2c0,1,0,2,0,3c-0.3,0.5,0,1-0.2,1.5c-0.7,4.3-1.8,8.4-3.4,12.4
		c-0.5,1.2-0.3,1.5,1,1.7c0.4,0.1,0.7,0,1.1,0c0.4,0.2,0.8,0,1.2,0.2c2.4,0.2,4.8,0.1,7.2,0c0.5-0.2,1,0.1,1.5-0.2
		c2.8,0,5.4-1,7.9-2.1c0.8-0.3,1.6-0.6,2.5-0.8c0.4-0.1,1-0.3,1.2,0.2c0.3,0.5,0.1,1.1-0.3,1.5c-0.9,1-2.1,1.8-3.2,2.6
		c-6,4.3-12.7,6.9-19.9,8.1c-1.4,0.2-2.8,0.5-4.2,0.7c-0.8,0.1-1.3,0.5-1.7,1.3c-5.1,10.4-10.2,20.9-14.5,31.7
		c-1.8,4.4-3.4,8.9-4.4,13.6c-0.4,1.7-0.7,3.5-0.4,5.3c0.3,1.6,1.4,2.4,3.1,2c1.5-0.3,3-0.7,4.5-1c1.2-0.2,1.3-0.1,1.1,1.1
		c-0.3,1.7-1.5,2.5-3,3.1c-0.4,0.2-0.9,0.2-1.4,0.3c-0.4,0.2-0.8-0.1-1.2,0.2c-2-0.1-3.9,0-5.9-0.6c-3.1-1-4.9-4.3-5.1-6.8
		c0-0.3-0.1-0.6-0.1-1C220.9,125.1,220.9,123.8,221,122.4z"/>
	<path class="st1" d="M364.1,86c0.1,2.5,1.5,4.4,3.9,5.3c0.6,0.2,1.5,0.1,1.5,0.9c0,0.9-0.9,1.1-1.6,1.4c-0.1,0.1-0.3,0.1-0.5,0.1
		c-0.5,0.2-1-0.1-1.4,0.2c-0.5,0-0.9,0-1.4,0c-0.4-0.3-0.8,0-1.2-0.2c-2.9-0.5-5-2.2-6.6-4.6c-1-1.5-1.6-3.1-1.8-4.9
		c-0.1-1.4-0.1-2.7,0-4.1c0.2-1.1,0.1-2.3,0.5-3.4c0.1-0.2,0.1-0.5-0.1-0.7c-0.3-0.2-0.4,0.1-0.6,0.2c-9.5,7.7-17.8,16.5-23.9,27.2
		c-3,5.2-4.8,11-6.3,16.8c-0.7,2.7-1.4,5.3-2.2,8c-0.3,1.2-1,2.2-2.2,2.7c-0.6,0.1-1.1,0.1-1.7,0c-1.1-0.1-2.1-0.4-3-0.8
		c-3-1.3-3.2-2.1-2.7-4.9c0.9-4.6,2.3-9,3.6-13.5c1.4-4.7,2.9-9.3,4.3-13.9c2-6.6,3.8-13.3,5.1-20c0.3-1.7,0.5-3.5,0.7-5.2
		c0.3-0.4,0-0.8,0.2-1.2c0-0.5,0-0.9,0.1-1.4c0.3-0.9,0-1.8,0.2-2.7c0-0.2,0-0.3,0-0.5c-0.2-0.4,0.1-0.8-0.2-1.2
		c-0.2-1.7-1.6-2.6-3.3-2.7c-0.9-0.1-1.9-0.1-2.5-0.9c0-0.4-0.1-0.8,0.1-1.2c0.4-0.6,1-0.9,1.7-1c0.4-0.1,0.8,0.1,1.2-0.2
		c0.3,0,0.6,0,0.9,0c0.7,0.3,1.5,0,2.2,0.2c2.3,0.4,4.5,0.8,6.6,1.9c3.6,1.9,4.8,5.1,5.3,8.8c0.1,0.7,0.1,1.4,0,2.1
		c-1.5,7.4-3.9,14.6-6.2,21.8c-0.1,0.2-0.1,0.5-0.1,0.7c0,0.2-0.4,0.5,0.2,0.5c2.1-3.4,4.4-6.6,7-9.7c1.9-2.3,3.9-4.5,6.1-6.5
		c3.3-3,6.8-5.8,10.8-7.8c0.8-0.4,1.4-1,1.8-1.8c1.5-2.9,3.5-5.3,6.8-6.2c2.2-0.6,4.3-0.3,6.5-0.4c0.4,0.2,0.8,0,1.2,0.2
		c0.1,0,0.2,0,0.3,0.1c1.9,0.6,1.9,0.5,0.7,2c-2.4,2.9-4.4,6.1-6.3,9.3c-1.5,2.7-3,5.4-3.7,8.4c-0.1,0.5-0.2,0.9-0.1,1.4
		C364,85.1,363.8,85.6,364.1,86z"/>
	<path class="st1" d="M187.7,135.7c-3.6-0.1-7-1.1-10.2-2.7c-0.8-0.4-1.4-1.1-1.9-1.7c-0.6-0.8-0.4-1.2,0.6-1.4
		c5-1.1,9.9-2.3,14.6-4.2c2.9-1.2,5.7-2.5,8-4.8c0.9-1,1.6-2.1,1.6-3.4c0-1-0.9-1.8-1.6-2.5c-2-2.2-4.4-4.2-6.5-6.3
		c-4.5-4.4-7.5-9.6-8.8-15.8c-0.1-0.4-0.1-0.9-0.1-1.3c-0.2-0.4,0-0.9-0.2-1.3c-0.2-3,0.1-5.8,1.4-8.6c0.8-1.7,1.8-3.2,2.9-4.7
		c1.4-1.9,3.1-3.5,4.8-5c2.8-2.5,5.8-4.7,9.1-6.6c3-1.7,6.2-3.1,9.7-3.7c1.4-0.3,2.8-0.4,4.3-0.4c0.8,0,1.4,0.4,2,0.9
		c3.1,2.4,5.8,5.1,8.2,8.2c0.2,0.2,0.3,0.6,0.5,0.8c0.3,0.5,0.2,0.9-0.1,1.3c-0.3,0.4-0.8,0.4-1.3,0.3c-1.8-0.4-3.5-0.7-5.3-1
		c-0.8-0.1-1.7,0-2.5,0c-0.4,0.2-0.8-0.1-1.2,0.2c-2.7,0.2-5.2,1-7.7,1.9c-4.6,1.7-8.8,4.3-12.5,7.5c-3,2.5-5.7,5.3-6.7,9.3
		c-0.1,0.6-0.2,1.1-0.2,1.6c-0.1,0.5-0.2,1,0,1.5c0.7,1.9,2.1,3.3,3.3,4.9c3.6,4.7,7.8,8.9,11.4,13.6c1.7,2.2,3.2,4.4,4.5,6.8
		c1.9,3.5,1.2,6.1-1.2,8.8c-3.9,4.3-8.7,7-14.5,7.7C190.6,135.7,189.1,135.8,187.7,135.7z"/>
	<path class="st2" d="M622.8,71.5c-4.7,0.4-9.2,1.5-12.4,5.4c-1.6,2-2.3,4.3-2.9,6.8c-0.2,0.8-0.4,1.6-0.3,2.5c-0.3,0.5,0,1-0.2,1.4
		c0,0.9,0,1.8,0,2.6c-0.2,0.5-0.1,0.9-0.1,1.4c0,13.7,0,27.3,0,41c0,0.4,0.2,0.9-0.1,1.3c-3,0-6,0-9,0c-0.3-0.3-0.2-0.8-0.2-1.1
		c0-23.1,0-46.1,0-69.2c0-0.4-0.2-0.8,0.2-1.1c2.6,0,5.1,0,7.7,0c0.8,0,0.9,0.2,0.9,0.9c0,2.3,0,4.5,0,7.1c4.1-5.9,9.6-9,16.5-9.1
		c0.3,2.1,0.1,4.2,0.1,6.3C622.9,69,623.1,70.3,622.8,71.5z"/>
	<path class="st0" d="M415.2,60.9c-0.5,0-1,0.2-1.5-0.1c0.2-1.6,1.2-2.7,2-3.9c1.6-2.7,3.6-5.2,5.7-7.5c1.6-1.8,3.2-3.7,5.1-5.4
		c4.1-3.7,8.4-7.1,13.2-9.8c6.8-3.9,14-6.9,21.8-8.4c2.7-0.5,5.5-0.9,8.2-1.2c1.8-0.2,3.6-0.1,5.4-0.4c1.7-0.3,3.4,0.1,5.1,0.2
		c2.9,0.2,5.8,0.6,8.6,1.1c4.9,0.9,9.7,2.2,14.3,4.1c6.2,2.6,12,5.8,17.4,9.9c5.7,4.4,10.6,9.5,14.7,15.4
		c4.5,6.3,7.9,13.2,10.2,20.6c1.4,4.4,2.3,8.9,2.8,13.5c0.3,2.7,0.5,5.5,0.6,8.2c0.1,2.1-0.2,4.3-0.3,6.4c-0.2,2.3-0.5,4.7-0.9,7
		c-0.9,5.1-2.2,10-4.2,14.8c-0.6,0-1-0.4-1.5-0.6c-0.2-0.9,0.3-1.5,0.6-2.3c2-5.4,3.2-11,4-16.7c0.5-4.1,0.7-8.2,0.4-12.3
		c-0.5-7.4-1.9-14.7-4.7-21.7c-4-10.1-9.9-19-17.8-26.4c-7-6.5-15-11.4-23.9-14.8c-6.2-2.3-12.6-3.7-19.1-4.2
		c-12-1.1-23.4,1.1-34.3,6c-5.8,2.6-11.2,6.1-16.1,10.2c-5.8,4.8-10.7,10.5-14.6,16.9C416,60,415.7,60.6,415.2,60.9z"/>
	<path class="st3" d="M414.7,135.4c0.4-0.2,0.8-0.2,1.2-0.2c0.7-0.3,0.9,0.4,1.1,0.8c1.7,2.8,3.7,5.5,5.8,8.1
		c4.7,5.7,10.2,10.4,16.5,14.3c8.3,5.1,17.2,8.4,26.8,9.8c5.4,0.8,10.8,0.8,16.1,0.4c7.3-0.6,14.4-2.4,21.1-5.3
		c6.8-3,13-6.9,18.6-11.9c5.6-5.1,10.3-10.8,14-17.4c0.2-0.4,0.5-1,1.1-0.8c0.4,0.1,0.8,0.2,1.2,0.5c-0.5,0-0.5,0.4-0.7,0.7
		c-2.3,4.1-5,7.9-8,11.5c-5,5.9-10.9,10.8-17.4,14.7c-7.2,4.3-15,7.3-23.4,8.8c-4.9,0.9-9.8,1.4-14.7,1.2
		c-7.7-0.3-15.1-1.7-22.4-4.4c-5.4-2-10.4-4.5-15.1-7.6c-3-2-5.9-4.3-8.6-6.8c-4.5-4-8.2-8.7-11.5-13.6
		C415.9,137.1,415.6,136,414.7,135.4z"/>
	<path class="st0" d="M410.6,126.9c-0.6,0.1-1.1,0.3-1.7,0c-0.2-1.3-0.8-2.5-1.3-3.7c-1.7-4.6-2.7-9.4-3.5-14.2
		c-0.5-3.3-0.6-6.6-0.9-10c0.6,0.2,1.1,0.4,1.7,0.6c0.3,0.4,0.3,0.8,0.3,1.2c0.2,8.4,2.1,16.5,5.1,24.3
		C410.6,125.7,411,126.3,410.6,126.9z"/>
	<path class="st3" d="M597.7,62.4c0,0.4-0.1,0.9-0.1,1.3c0,23,0,45.9,0,68.9c0,0.4,0.1,0.9,0.1,1.3c-0.5-0.3-0.3-0.8-0.3-1.2
		c0-23,0-46.1,0-69.1C597.4,63.2,597.2,62.7,597.7,62.4z"/>
	<path class="st3" d="M717,101.3c0.5-0.3,1-0.2,1.5-0.2c20.5,0,40.9,0,61.4,0c1.1,0,1.5-0.3,1.4-1.4c-0.1-1,0-2-0.1-3
		c0.4,1.3,0.1,2.7,0.2,4c0,0.3-0.2,0.5-0.5,0.5c-0.2,0-0.5,0-0.7,0c-20.7,0-41.5,0-62.2,0C717.7,101.3,717.3,101.3,717,101.3z"/>
	<path class="st3" d="M606.7,133.9c0.2-0.5,0.1-1,0.1-1.5c0-13.6,0-27.2,0-40.7c0-0.5-0.1-1,0.1-1.4c0,14.2,0,28.4,0,42.6
		C607,133.2,607.1,133.6,606.7,133.9z"/>
	<path class="st3" d="M574.1,62.4c0,0.5-0.1,1-0.1,1.5c0,11.4,0,22.9,0,34.3c0,1.5-0.1,3-0.2,4.5c0-13.1,0-26.3,0-39.4
		C573.8,63,573.7,62.6,574.1,62.4z"/>
	<path class="st3" d="M698,112.1c0.1-0.6-0.4-0.6-0.8-0.6c-3.1,0-6.2,0-9.3,0c0.9-0.4,1.8-0.1,2.7-0.2c2.2,0,4.5,0,6.7,0
		C697.7,111.4,698.4,111.2,698,112.1z"/>
	<path class="st3" d="M779,111.4c-3.5,0-7-0.2-10.5,0.1c0.1-0.3,0.3-0.3,0.6-0.3c3.3,0,6.6,0,9.8,0c0,0,0.1,0,0.1,0
		C779,111.2,779,111.3,779,111.4z"/>
	<path class="st3" d="M622.8,71.5c0.3-2.9,0.1-5.8,0.1-8.6c0-0.5-0.1-0.9-0.1-1.4c0.3,0.2,0.3,0.5,0.3,0.8c0,2.9,0,5.7,0,8.6
		C623,71.1,623.1,71.4,622.8,71.5z"/>
	<path class="st3" d="M573.6,126.7c0.4-0.5,0.4-0.2,0.4,0.2c0,1.9,0,3.7,0,5.6c0,0.5,0.1,0.9,0.1,1.4c-0.4-0.3-0.3-0.7-0.3-1.1
		c0-1.7,0-3.3,0-5C573.8,127.5,574,127,573.6,126.7z"/>
	<path class="st3" d="M548.9,135.7c2.2,0,4.5,0,6.7,0C553.4,136,551.1,136,548.9,135.7z"/>
	<path class="st3" d="M627.3,95.3c0,2.1,0,4.1,0,6.2C627,99.4,627,97.4,627.3,95.3z"/>
	<path class="st3" d="M406.8,135.7c1.8,0,3.7,0,5.5,0C410.5,136,408.6,135.9,406.8,135.7z"/>
	<path class="st3" d="M126.8,64.8c-1.7,0.2-3.4,0.2-5.1,0.2C123.4,64.6,125.1,64.9,126.8,64.8z"/>
	<path class="st3" d="M140.2,130.6c1.7,0,3.3,0,5,0C143.5,130.9,141.8,130.9,140.2,130.6z"/>
	<path class="st3" d="M707.5,95.5c0,1.7,0,3.3,0,5C707.1,98.9,707.1,97.2,707.5,95.5z"/>
	<path class="st3" d="M272.4,133c1.5,0,3,0,4.5,0C275.4,133.3,273.9,133.3,272.4,133z"/>
	<path class="st3" d="M187.7,135.7c1.4,0,2.9,0,4.3,0C190.6,135.9,189.1,136,187.7,135.7z"/>
	<path class="st3" d="M136.4,64.6c-1.5,0.2-2.9,0.2-4.4,0.2C133.5,64.4,134.9,64.6,136.4,64.6z"/>
	<path class="st3" d="M354.9,80.2c0,1.4,0,2.7,0,4.1C354.6,82.9,354.6,81.5,354.9,80.2z"/>
	<path class="st3" d="M221,122.4c0,1.4,0,2.7,0,4.1C220.7,125.1,220.7,123.8,221,122.4z"/>
	<path class="st3" d="M297.3,64.5c-1.3,0-2.5,0-3.8,0C294.8,64.2,296.1,64.2,297.3,64.5z"/>
	<path class="st3" d="M389.9,79.2c0,1.1,0,2.2,0,3.3C389.6,81.4,389.7,80.3,389.9,79.2z"/>
	<path class="st3" d="M661.7,69.3c1.1-0.2,2.3-0.2,3.4,0C663.9,69.3,662.8,69.3,661.7,69.3z"/>
	<path class="st0" d="M35.3,197.1c1,0,1.9,0,2.9,0C37.2,197.4,36.2,197.4,35.3,197.1z"/>
	<path class="st3" d="M174.8,89.5c0-0.9,0-1.8,0.2-2.7C174.9,87.7,175.2,88.6,174.8,89.5z"/>
	<path class="st3" d="M327.1,67.4c0,0.9,0.1,1.8-0.2,2.7C327,69.2,326.7,68.3,327.1,67.4z"/>
	<path class="st3" d="M412.1,60.7c-0.9,0-1.7,0-2.6,0C410.3,60.4,411.2,60.4,412.1,60.7z"/>
	<path class="st0" d="M11.5,171.9c0,0.9,0,1.7,0,2.6C11.2,173.6,11.2,172.7,11.5,171.9z"/>
	<path class="st0" d="M36.3,190.1c-1,0.3-1.9,0.3-2.9,0C34.4,190.1,35.4,190.1,36.3,190.1z"/>
	<path class="st3" d="M145.5,19.9c0.2,0.8,0.2,1.7,0,2.5C145.5,21.5,145.5,20.7,145.5,19.9z"/>
	<path class="st3" d="M265.7,120.3c-0.2-0.8-0.2-1.6,0-2.5C265.7,118.6,265.7,119.5,265.7,120.3z"/>
	<path class="st3" d="M748.8,60.7c-0.7,0-1.5,0-2.2-0.2C747.3,60.6,748.1,60.3,748.8,60.7z"/>
	<path class="st3" d="M338.9,72.7c0-0.7,0-1.4,0-2.1C339.2,71.3,339.2,72,338.9,72.7z"/>
	<path class="st3" d="M175,83.3c-0.2-0.7-0.2-1.4-0.2-2.2C175.1,81.8,174.9,82.6,175,83.3z"/>
	<path class="st3" d="M327.1,59.9c-0.7,0-1.5,0-2.2-0.2C325.6,59.8,326.4,59.6,327.1,59.9z"/>
	<path class="st3" d="M743.1,60.5c-0.7,0.2-1.5,0.2-2.2,0.2C741.6,60.3,742.4,60.6,743.1,60.5z"/>
	<path class="st3" d="M140,11.1c-0.6,0.2-1.3,0.2-2,0.2C138.6,10.8,139.3,11.1,140,11.1z"/>
	<path class="st3" d="M667.9,60.7c-0.6,0-1.3,0-1.9-0.2C666.6,60.5,667.3,60.3,667.9,60.7z"/>
	<path class="st3" d="M662.7,60.5c-0.6,0.2-1.3,0.2-1.9,0.2C661.4,60.3,662,60.5,662.7,60.5z"/>
	<path class="st3" d="M142.6,11.2c-0.6,0-1.3,0.1-1.9-0.2C141.3,11.1,141.9,10.8,142.6,11.2z"/>
	<path class="st3" d="M318.5,131.1c0.6,0,1.1,0,1.7,0C319.6,131.4,319,131.4,318.5,131.1z"/>
	<path class="st3" d="M573.8,105.6c0,0.6,0.1,1.2-0.2,1.7C573.7,106.8,573.4,106.2,573.8,105.6z"/>
	<path class="st3" d="M396.5,113.1c-0.1-0.6-0.1-1.2-0.2-1.7C396.7,111.9,396.4,112.5,396.5,113.1z"/>
	<path class="st3" d="M366,93.8c0.5-0.2,1-0.2,1.4-0.2C367,94,366.5,93.8,366,93.8z"/>
	<path class="st3" d="M386.9,113.3c0.2,0.5,0.2,1,0.2,1.5C386.7,114.3,386.9,113.7,386.9,113.3z"/>
	<path class="st3" d="M266,67c-0.5,0.2-1,0.2-1.5,0.2C265,66.8,265.5,67,266,67z"/>
	<path class="st3" d="M607,87.6c0-0.5-0.1-1,0.2-1.4C607.1,86.6,607.4,87.1,607,87.6z"/>
	<path class="st3" d="M332.8,95.7c-0.1,0.2-0.2,0.6-0.4,0.4c-0.3-0.3,0-0.6,0.2-1C332.7,95.4,332.7,95.6,332.8,95.7z"/>
	<path class="st3" d="M745,127c-0.5,0.2-1,0.2-1.5,0C744,127,744.5,127,745,127z"/>
	<path class="st3" d="M257.3,52.8c0-0.5,0-1,0.2-1.5C257.5,51.8,257.7,52.3,257.3,52.8z"/>
	<path class="st3" d="M188.4,93.9c-0.3-0.5-0.2-1,0-1.5C188.4,92.8,188.4,93.3,188.4,93.9z"/>
	<path class="st3" d="M667.4,135.8c0.5-0.2,1-0.2,1.5-0.2C668.4,136,667.9,135.8,667.4,135.8z"/>
	<path class="st3" d="M152.7,24.5c0-0.5,0-1,0.2-1.5C152.8,23.5,153,24,152.7,24.5z"/>
	<path class="st3" d="M637.2,102.3c-0.2-0.5-0.2-1-0.2-1.5C637.4,101.3,637.1,101.8,637.2,102.3z"/>
	<path class="st3" d="M174.5,92.1c0-0.4,0-0.8,0.2-1.2C174.7,91.3,174.9,91.8,174.5,92.1z"/>
	<path class="st3" d="M183.1,90.2c0.2,0.4,0.2,0.8,0.2,1.3C183,91.1,183.2,90.6,183.1,90.2z"/>
	<path class="st3" d="M666.5,69.4c0.4,0,0.8,0,1.2,0.2C667.3,69.6,666.8,69.7,666.5,69.4z"/>
	<path class="st3" d="M364.1,86c-0.2-0.4-0.2-0.8-0.2-1.2C364.2,85.1,364,85.6,364.1,86z"/>
	<path class="st3" d="M326.8,71.5c0,0.4,0,0.8-0.2,1.2C326.7,72.3,326.5,71.9,326.8,71.5z"/>
	<path class="st3" d="M215.5,72c0.4-0.2,0.8-0.2,1.2-0.2C216.3,72.1,215.9,72,215.5,72z"/>
	<path class="st3" d="M257.5,48.3c-0.2-0.4-0.2-0.8-0.2-1.2C257.7,47.4,257.5,47.9,257.5,48.3z"/>
	<path class="st3" d="M232.1,134.9c0.4-0.2,0.8-0.2,1.2-0.2C232.9,135,232.5,134.8,232.1,134.9z"/>
	<path class="st3" d="M546.2,135.4c0.4,0,0.8,0,1.2,0.2C547,135.6,546.6,135.7,546.2,135.4z"/>
	<path class="st3" d="M556.8,135.6c0.4-0.2,0.8-0.2,1.2-0.2C557.6,135.7,557.2,135.6,556.8,135.6z"/>
	<path class="st3" d="M280.5,100.5c0.4-0.2,0.8-0.2,1.2-0.2C281.4,100.7,280.9,100.5,280.5,100.5z"/>
	<path class="st3" d="M174.7,79.5c-0.2-0.4-0.2-0.8-0.2-1.2C174.9,78.6,174.7,79.1,174.7,79.5z"/>
	<path class="st3" d="M257.3,67.1c-0.4,0-0.8,0.1-1.2-0.2C256.4,67,256.9,66.8,257.3,67.1z"/>
	<path class="st3" d="M302.3,74.2c0,0.4,0.1,0.8-0.2,1.2C302.2,75,302,74.6,302.3,74.2z"/>
	<path class="st3" d="M659.5,135.7c0.4,0,0.8,0,1.2,0.2C660.3,135.8,659.9,136,659.5,135.7z"/>
	<path class="st3" d="M324,59.8c-0.4,0.2-0.8,0.1-1.2,0.2C323.2,59.6,323.6,59.8,324,59.8z"/>
	<path class="st3" d="M739.9,135.7c0.4,0,0.9,0,1.3,0.2C740.8,135.8,740.3,136,739.9,135.7z"/>
	<path class="st3" d="M747.8,135.8c0.4-0.2,0.8-0.2,1.2-0.2C748.7,136,748.2,135.8,747.8,135.8z"/>
	<path class="st3" d="M125.1,114.9c0.2,0.4,0.2,0.8,0.2,1.2C124.9,115.8,125.1,115.3,125.1,114.9z"/>
	<path class="st3" d="M372.9,63.5c-0.4,0-0.8,0-1.2-0.2C372.1,63.4,372.6,63.2,372.9,63.5z"/>
	<path class="st3" d="M156,55.9c-0.4,0-0.9,0-1.3-0.2C155.2,55.7,155.6,55.5,156,55.9z"/>
	<path class="st3" d="M308.7,78c0-0.4,0-0.8,0.2-1.2C308.8,77.2,309,77.6,308.7,78z"/>
	<path class="st3" d="M637,95.5c0-0.4,0-0.8,0.2-1.2C637.2,94.7,637.3,95.1,637,95.5z"/>
	<path class="st3" d="M781.2,95.1c-0.2-0.4-0.2-0.8-0.2-1.2C781.3,94.2,781.2,94.7,781.2,95.1z"/>
	<path class="st3" d="M150.7,55.7c-0.4,0.2-0.8,0.2-1.2,0.2C149.9,55.5,150.3,55.7,150.7,55.7z"/>
	<path class="st3" d="M145.5,31.7c0.4,0,0.8,0,1.2,0C146.2,32,145.8,32,145.5,31.7z"/>
	<path class="st3" d="M363.4,93.6c0.4,0,0.8,0,1.2,0.2C364.2,93.8,363.7,94,363.4,93.6z"/>
	<path class="st3" d="M308.9,75.4c-0.2-0.4-0.2-0.8-0.2-1.2C309,74.5,308.8,75,308.9,75.4z"/>
	<path class="st3" d="M321.1,61c0,0.4,0,0.8-0.1,1.2C320.8,61.7,320.8,61.3,321.1,61z"/>
	<path class="st3" d="M326.9,65.7c0.3,0.4,0.2,0.8,0.2,1.2C326.7,66.6,326.9,66.1,326.9,65.7z"/>
	<path class="st3" d="M707.7,92.6c0,0.4,0,0.8-0.2,1.2C707.6,93.5,707.4,93,707.7,92.6z"/>
	<path class="st3" d="M125.2,108.3c0,0.4,0,0.8-0.2,1.2C125.1,109.1,124.9,108.6,125.2,108.3z"/>
	<path class="st3" d="M549.8,126.9c-0.4,0-0.9,0.1-1.2-0.2C549,126.8,549.5,126.6,549.8,126.9z"/>
	<path class="st3" d="M556.3,126.7c-0.4,0.2-0.8,0.2-1.2,0.2C555.5,126.6,555.9,126.8,556.3,126.7z"/>
	<path class="st3" d="M748.1,126.7c-0.4,0.2-0.8,0.2-1.2,0.2C747.2,126.6,747.7,126.8,748.1,126.7z"/>
	<path class="st3" d="M664.3,127c-0.4,0.2-0.9,0.2-1.3,0C663.5,127,663.9,127,664.3,127z"/>
	<path class="st3" d="M744,135.9c0.4,0,0.8,0,1.2,0C744.8,136.2,744.4,136.2,744,135.9z"/>
	<path class="st0" d="M133.9,116.2c0-6.4,2.3-12.1,5.6-17.4c1.6-2.6,3.4-5,5.4-7.4c0.4-0.5,0.7-0.6,1.3-0.3c1.6,0.9,3.5,1.2,5.3,1.1
		c0.5,0,1-0.1,1.5-0.4c0.7-0.4,0.9-1,0.7-1.7c-0.2-0.8-0.8-0.9-1.4-0.7c-1.4,0.3-2.7,0-3.9-0.8c-0.4-0.3-0.7-0.5-0.2-1
		c4.6-4.2,9.5-7.9,15.6-9.5c1.2-0.3,1.7-0.1,2.1,1.1c1.2,3.3,1.4,6.6,1.2,10c-0.9,12.4-5.7,23.3-13.5,32.9c-2.2,2.7-4.9,4.7-8.3,5.5
		c-5.9,1.4-10.1-1.5-11.1-7.4C133.9,118.9,133.9,117.5,133.9,116.2z"/>
	<path class="st0" d="M143.8,64.4c2.3-2.2,4.9-2.8,7.8-2.5c4.2,0.5,7.3,2.6,9,6.5c0.3,0.6,0.4,0.9-0.5,1c-2.7,0.2-5.1,1.4-7.5,2.7
		c-4.2,2.3-8.1,5-11.9,7.8c-0.4,0.3-0.8,0.8-1-0.1c-0.6-3.9-0.9-7.9,1.1-11.6c0.4-0.7,0.9-1.2,1.7-1.4c1.2-0.4,2.4-0.8,3.6-1.2
		c0.3-0.1,0.8-0.1,0.7-0.6c-0.1-0.5-0.5-0.6-0.9-0.6C145.3,64.4,144.6,64.4,143.8,64.4z"/>
	<path class="st0" d="M744.2,93.1c-8.6,0-17.2,0-25.8,0c-0.8,0-1.2-0.1-1-1c1.5-8.3,5.5-15,12.9-19.4c4.8-2.8,10.1-3.6,15.6-3.3
		c6.2,0.3,11.8,2.2,16.4,6.4c4,3.7,6.4,8.4,8,13.6c0.3,0.9,0.4,1.9,0.8,2.8c0.3,0.9,0,1-0.9,1C761.4,93.1,752.8,93.1,744.2,93.1z"/>
	<path class="st4" d="M428.3,126.9c1-1.5,1.9-3.1,2.6-4.8c0.9,0,1,0.8,1.3,1.4c1.6,2.8,3.3,5.4,5.3,7.8c3.9,4.7,8.5,8.6,13.8,11.5
		c5.5,3,11.2,5.1,17.3,6c9,1.4,17.7,0.2,26.2-3.3c6.8-2.8,12.8-7,17.7-12.4c3.6-4,6.5-8.5,8.8-13.4c0.8-1.7,1.5-3.4,2.1-5.2
		c0.1-0.4,0.2-1,0.9-1c0.5,2.8,1.3,5.5,2.3,8.1c-1.7,3.1-3.3,6.2-5.3,9.1c-5.4,7.5-12,13.5-20.2,17.8c-6.5,3.4-13.3,5.2-20.5,5.8
		c-9.6,0.8-18.8-0.8-27.6-4.9c-6.5-3-12.2-7.1-17.1-12.3c-2.8-2.9-5.1-6.1-7.2-9.5C428.5,127.4,428.4,127.2,428.3,126.9z"/>
	<path class="st5" d="M424.8,65.3c-1.2-0.8-2.4-1.6-3.6-2.4c2-2.4,3.6-5,5.6-7.3c5.4-6.2,11.5-11.7,18.8-15.5
		c2.7-1.4,5.4-2.7,8.2-3.7c7.4-2.8,15.1-4,23-3.7c1.8,0.1,3.7,0.4,5.5,0.5c2.4,0.1,4.6,0.7,6.9,1.1c3.3,0.5,6.4,1.5,9.6,2.7
		c5.2,1.9,9.9,4.9,14.4,8.1c2.5,1.8,4.9,3.7,7,6c1.4,1.5,3,2.7,4.3,4.3c1.6,2.1,3.3,4,4.8,6.1c0.2,0.3,0.5,0.6,0.2,1.1
		c-1.3,0-2.6,0-3.8,0c-1.3-1.2-2.1-2.7-3.2-4c-4.1-4.4-8.2-8.7-13.4-11.9c-3.9-2.5-8-4.7-12.4-6.3c-3-1.1-6.1-2-9.2-2.6
		c-3.7-0.7-7.4-0.8-11-1.3c-1.3-0.2-2.5,0.2-3.8,0.2c-5.2,0.3-10.2,1.2-15.2,2.8c-3.6,1.1-7.1,2.6-10.4,4.5
		c-3.9,2.3-7.5,4.9-10.8,7.9c-2.1,1.9-4,3.9-5.8,6c-1.9,2.3-3.8,4.5-5.3,7.1C425.1,65,425,65.2,424.8,65.3z"/>
	<path class="st6" d="M421.4,133c1-0.7,2.1-1.4,3.1-2.1c0.4,0.2,0.6,0.6,0.7,0.9c2.2,3.9,5.2,7.2,8.3,10.4
		c4.6,4.6,9.9,8.3,15.7,11.2c3.4,1.7,7,2.8,10.6,4.1c3,1.1,6.2,1.4,9.3,1.8c2.7,0.4,5.4,0.2,8.1,0.3c4.1,0,8.1-0.6,12.1-1.3
		c2.5-0.4,4.9-1.3,7.2-2.1c3.9-1.4,7.5-3.2,11-5.2c2.4-1.4,4.6-3.2,6.9-5c2.3-1.8,4.3-3.9,6.3-6c2.4-2.6,4.6-5.3,6.4-8.4
		c0.5-0.9,1.1-1.8,1.6-2.8c0.3-0.6,0.6-1.1,1.2-1.4c0.7,0.7,1.5,1.4,2.1,2.3c-1.2,2.6-2.7,5.1-4.4,7.4c-2.1,2.8-4.2,5.5-6.8,7.9
		c-4.2,4-8.6,7.6-13.7,10.5c-3.2,1.8-6.5,3.4-10,4.6c-4.4,1.6-9,2.7-13.8,3c-2.1,0.2-4.2,0.4-6.3,0.4c-5.2,0-10.4-0.4-15.6-1.6
		c-7.1-1.6-13.6-4.4-19.7-8.2c-4.8-3.1-9.3-6.7-13-11C426.1,139.5,423.5,136.4,421.4,133z"/>
	<path class="st7" d="M417.8,61.6c-0.5-0.2-1-0.3-1.4-0.5c-0.3-0.4,0-0.8,0.2-1.1c2.4-4,5.2-7.6,8.4-10.9c4.5-4.7,9.3-8.9,14.9-12.2
		c8-4.9,16.6-8.1,26-9.4c3.9-0.5,7.9-1,11.9-0.7c7.1,0.4,14.1,1.5,20.8,3.8c6.9,2.4,13.3,5.8,19.2,10.2c4.9,3.7,9.3,7.9,13.1,12.6
		c7.2,9,12,19.1,14.2,30.5c0.5,2.8,1,5.6,1.2,8.4c0.2,3.1,0.4,6.2,0.1,9.4c-0.5,5.1-1.2,10.2-2.5,15.1c-0.6,2.2-1.3,4.4-2.2,6.6
		c-0.1,0.3-0.2,0.7-0.6,0.9c-0.5-0.2-0.8-0.4-1.2-0.8c-0.3-0.4,0-0.8,0.1-1.1c0.5-2,1.3-3.9,1.9-5.9c1.2-4.2,1.9-8.6,2.3-13
		c0.3-3.3,0.4-6.6,0.1-9.9c-0.3-4-0.7-8-1.7-12c-0.8-3.3-1.8-6.6-3.1-9.7c-2.8-6.7-6.4-13-11.1-18.5c-1.7-1.9-3.5-3.7-5.3-5.5
		c-3.7-3.6-7.7-6.8-12.1-9.4c-4.4-2.6-8.9-4.8-13.8-6.4c-4.3-1.4-8.6-2.3-13.1-2.8c-3.2-0.4-6.4-0.5-9.5-0.5
		c-5.6,0.1-11.1,0.7-16.4,2.2c-4.9,1.4-9.5,3.4-14,5.8c-3.9,2.1-7.5,4.5-10.8,7.3c-2.1,1.8-4,3.7-6,5.7
		C423.6,53.4,420.6,57.5,417.8,61.6z"/>
	<path class="st3" d="M541,124.3c1.2-3.5,2.5-7.1,3.2-10.7c0.6-2.9,1.1-5.8,1.4-8.7c0.2-2.1,0.1-4.3,0.7-6.4c0.2-1-0.2-2-0.2-3
		c-0.5-9.2-2.2-18.1-6-26.5c-2.5-5.5-5.6-10.6-9.3-15.2c-3-3.8-6.4-7.2-10.1-10.3c-4.5-3.7-9.2-6.9-14.5-9.4
		c-6.1-2.9-12.6-4.9-19.3-6c-3.4-0.5-6.8-0.6-10.2-1c-1.5-0.2-3.1,0.2-4.7,0.3c-2.5,0.1-5,0.4-7.5,0.8c-5.2,0.8-10.2,2.3-15.1,4.4
		c-5.6,2.4-10.8,5.4-15.6,9.2c-4.2,3.3-7.9,7-11.3,11.1c-2,2.5-3.9,5-5.5,7.8c-0.1,0.2-0.2,0.4-0.3,0.6c-0.4,0.1-0.8-0.1-1.2-0.2
		c1.1-2.5,2.8-4.7,4.4-6.9c2.5-3.5,5.4-6.6,8.6-9.5c4.3-4,9.1-7.3,14.2-10.1c5.1-2.9,10.5-5,16.2-6.4c3.6-0.9,7.3-1.5,11-1.9
		c1.8-0.2,3.6-0.1,5.5-0.4c1.7-0.2,3.4,0.1,5.1,0.2c3.6,0.3,7.1,0.8,10.6,1.5c4.5,0.9,8.8,2.4,12.9,4.1c6.4,2.7,12.3,6.4,17.7,10.8
		c6.7,5.5,12.1,12.1,16.4,19.6c4.2,7.2,7,15,8.4,23.3c0.9,5.3,1.3,10.8,1,16.2c-0.5,8.1-2.1,15.9-5.3,23.4
		C541.6,124.7,541.3,124.5,541,124.3z"/>
	<path class="st7" d="M537.2,132.9c-1.2,0.9-1.6,2.3-2.4,3.5c-2.2,3.4-4.6,6.6-7.3,9.6c-4.2,4.8-9,8.8-14.3,12.2
		c-7.1,4.5-14.8,7.7-23.1,9.5c-6.2,1.3-12.6,1.5-18.9,1.2c-5.2-0.3-10.2-1.3-15.2-2.8c-8.3-2.5-15.8-6.4-22.6-11.6
		c-4.6-3.6-8.8-7.7-12.3-12.3c-1.6-2.1-3.2-4.3-4.5-6.6c-0.1-0.3-0.3-0.5-0.6-0.5c0.5-0.3,1.1-0.4,1.7-0.5c0.4-0.1,0.5,0.3,0.7,0.5
		c1.9,3.1,4.2,6,6.6,8.8c1.6,1.9,3.4,3.6,5.2,5.3c3.5,3.4,7.3,6.3,11.5,8.7c3.8,2.1,7.7,4.2,11.9,5.6c5.2,1.8,10.6,3,16.1,3.5
		c2.1,0.2,4.2,0.3,6.3,0.3c6.5-0.1,12.9-0.7,19.1-2.7c1.3-0.4,2.5-0.7,3.8-1.2c7.2-2.9,14-6.4,19.9-11.4c1.5-1.3,2.9-2.7,4.3-4.1
		c2.1-2.2,4.2-4.3,6.2-6.7c2-2.4,3.7-5,5.2-7.7c0.3-0.5,0.5-1.1,1.2-1.3C536.3,132.3,536.7,132.6,537.2,132.9z"/>
	<path class="st8" d="M429.6,103.1c-0.2-0.4-0.5-0.7-0.7-1.1c-0.2-5.4,0-10.8,1.3-16.2c1.8-7.4,5.3-14,10.2-19.7
		c5.7-6.6,12.6-11.5,20.9-14.2c4.7-1.6,9.6-2.1,14.6-2.1c6.1,0,12,1.1,17.6,3.4c4.8,2,9.1,4.7,13.1,8.1c4.4,3.8,7.9,8.2,10.8,13.2
		c1.7,3,3,6.2,3.9,9.5c0.3,1,0.6,2,0.8,3c0.1,0.4,0.1,0.8,0.2,1.1c0,0.1,0.1,0.2,0.1,0.3c0,0.6,0.1,1.3,0.3,1.9c0,0.2,0,0.4,0,0.5
		c0,0.6,0.1,1.1,0.2,1.6c0,0.4,0.1,0.7,0.1,1c-0.1-1.1-0.2-2.3-0.2-3.4c0-1.4,0-2.9,0-4.3c0.1-0.7,0-1.5,0-2.2c0-0.7,0-1.3,0-2
		c0-1.3-0.1-2.6,0-3.8c-0.1-3.3,0-6.6,0-9.9c0.1-0.9,0-1.9,0-2.8c0-0.3,0-0.6,0-0.8c0-0.2,0-0.4,0-0.6c0-0.5,0-0.9,0.2-1.4
		c0.1-0.1,0.2-0.1,0.4,0c0,0.4-0.1,0.9-0.1,1.3c0,12.6,0,25.3,0,37.9c0,1,0,2,0,3c-0.6-0.2-0.2-0.7-0.3-1c-0.2,4.7-1.6,9.2-3.4,13.6
		c-1.4,3.6-3.4,6.8-5.7,9.9c-2.3,3.2-5.1,6.1-8.2,8.6c-0.6,0.5-1.1,1.1-1.7,1.6c-2.5,1.8-5.1,3.5-7.9,4.8c-5,2.3-10.2,3.8-15.7,4.3
		c-6.3,0.5-12.5,0.1-18.4-1.9c-7-2.2-13.3-5.7-18.6-10.9c-2.4-2.4-4.7-4.8-6.6-7.6c-1.6-2.4-3.3-4.7-4.2-7.5
		c-0.2-0.5-0.5-0.8-0.7-1.3c0.1-0.7,0.1-1.4,0.2-2.2c0.7-0.1,0.8,0.5,0.9,0.9c1.7,4.2,4,8.1,6.8,11.6c2.8,3.5,6.1,6.6,9.8,9.3
		c6,4.3,12.6,6.8,19.9,7.8c7.5,1,14.9,0.4,22.1-2.3c5.5-2.1,10.4-5.1,14.7-9.1c4.4-4,7.8-8.7,10.6-13.9c2.8-5.3,4.2-10.9,4.8-16.8
		c0.9-8.9-0.3-17.6-4.3-25.6c-2.8-5.7-6.7-10.6-11.6-14.8c-2.7-2.4-5.6-4.4-8.7-6.1c-4.3-2.4-9-3.8-13.9-4.7
		c-3.9-0.7-7.7-0.6-11.6-0.4c-3.7,0.1-7.3,1-10.8,2.2c-5,1.7-9.5,4.4-13.6,7.7c-3.8,3.1-7,6.7-9.8,10.8c-4.2,6.3-6.6,13.1-7.5,20.6
		c-0.4,3.1-0.3,6.1-0.2,9.2C429.9,102,430.1,102.6,429.6,103.1z"/>
	<path class="st9" d="M428.3,126.9c0.9,0.7,1.4,1.7,2,2.7c2.5,3.8,5.4,7.3,8.8,10.3c7.6,6.8,16.3,11.3,26.3,13.2
		c2.9,0.5,5.7,0.8,8.6,1c7.1,0.3,14-0.8,20.7-3.1c5.6-2,10.8-5,15.4-8.8c5.2-4.2,9.5-9.2,12.9-14.9c0.9-1.5,1.7-3.2,2.6-4.7
		c0.2-0.4,0.3-0.9,0.9-1c0.2,0.5,0.4,1,0.6,1.4c0.1,0.6-0.2,1.1-0.5,1.6c-2.9,5.3-6.2,10.2-10.4,14.4c-4.4,4.5-9.3,8.2-15,11
		c-3.6,1.8-7.3,3.1-11.1,4.2c-3,0.8-6.2,1.3-9.3,1.5c-2,0.1-4.1,0.3-6.1,0.2c-8.1-0.2-15.8-2-23.1-5.5c-6-2.9-11.4-6.7-16-11.4
		c-3.1-3.1-5.8-6.5-8.1-10.2c-0.1-0.2-0.3-0.5-0.3-0.8C427.6,127.7,427.9,127.3,428.3,126.9z"/>
	<path class="st5" d="M532.5,104.4c-0.2-0.9-0.2-1.7-0.2-2.6c0-12.6,0-25.2,0-37.8c0-0.5-0.1-1-0.1-1.5c0.5-0.1,0.5,0.3,0.6,0.6
		c0,0.3,0,0.5,0,0.8c0,0.5,0,0.9,0,1.4c-0.1,1.1,0.2,2.1,0.8,3.1c2.6,5,4.4,10.2,5.4,15.7c0.5,2.7,0.9,5.4,1.1,8.1
		c0.6,6.2,0.4,12.4-0.8,18.4c-0.5,2.5-1.3,5-1.9,7.5c-0.2,0.7-0.3,1.4-1.1,1.7c-1-1.3-1.6-2.8-2.1-4.4c0.1-2,0.8-3.9,1.1-5.9
		c1-5.5,1.3-11.1,1-16.7c-0.4-5.6-1.6-11.1-3.4-16.4c-0.1-0.4-0.1-0.8-0.3-1.2c0.4,1.1,0.3,2.2,0.3,3.3c0,1.2,0.1,2.5,0,3.7
		c-0.1,1.2,0.1,2.4,0,3.7c0,5.5,0.1,11,0,16.5C532.9,103.2,533.1,103.9,532.5,104.4z"/>
	<path class="st10" d="M524.4,113.5c-0.9,1.1-1,2.6-1.6,3.8c-2.2,5.3-5,10.2-8.7,14.6c-4.8,5.7-10.6,10.1-17.4,13.2
		c-4.7,2.1-9.6,3.7-14.7,4.2c-2.4,0.2-4.7,0.6-7.1,0.4c-6.6-0.4-13.1-1.6-19.2-4.5c-3.2-1.5-6.4-3.2-9.2-5.2c-3.7-2.7-7-5.9-9.9-9.5
		c-2-2.5-3.5-5.2-5.1-7.9c-0.1-0.2-0.3-0.4-0.4-0.5c0.2-0.5,0.4-1.1,0.6-1.6c0.7-0.1,0.8,0.5,1.1,0.9c1.9,3.3,3.9,6.5,6.4,9.4
		c6.4,7.3,14,12.5,23.4,15.2c4.7,1.4,9.5,2,14.3,1.9c11.7-0.2,22-4.1,30.9-11.9c7.1-6.3,12.1-13.9,15-23c0.2-0.6,0.3-1.2,0.5-1.8
		c0.1-0.4,0.2-0.9,0.8-0.9C523.8,111.5,524.3,112.5,524.4,113.5z"/>
	<path class="st11" d="M424.8,65.3c0.2-1.2,1.2-2,1.7-3.1c0.6-1.2,1.7-2.1,2.5-3.2c1.6-2,3.1-4,5-5.7c3.6-3.3,7.4-6.4,11.5-8.9
		c3.2-2,6.6-3.6,10.2-4.9c3.5-1.2,7.1-2.1,10.7-2.7c2.8-0.4,5.5-0.4,8.3-0.9c1.7-0.3,3.5,0.1,5.2,0.3c1.2,0.1,2.4,0.2,3.5,0.3
		c2.4,0.2,4.8,0.7,7.1,1.3c5.7,1.5,11.1,3.7,16.2,6.7c4.8,2.8,9,6.2,12.8,10.2c2.3,2.4,4.6,4.7,6.2,7.5c-0.5,0-1,0-1.4,0
		c-0.9-0.5-1.3-1.4-1.9-2.1c-5.2-6.4-11.3-11.6-18.5-15.5c-3.8-2.1-7.9-3.6-12.1-4.8c-3.5-1-7.1-1.7-10.7-2
		c-6.4-0.4-12.8-0.2-19.1,1.4c-4.4,1.1-8.6,2.6-12.6,4.6c-5,2.6-9.6,5.9-13.6,9.9c-3.1,3-6,6.2-8.4,9.9c-0.5,0.8-1.1,1.7-1.9,2.2
		C425.2,65.9,425,65.6,424.8,65.3z"/>
	<path class="st12" d="M417.8,61.6c0.3-1.3,1.2-2.2,1.8-3.3c1.6-2.5,3.5-4.7,5.5-6.9c1.4-1.5,2.9-2.9,4.3-4.3c2.2-2.2,4.6-4.1,7-6
		c3.5-2.7,7.5-4.7,11.4-6.7c4-2,8.3-3.3,12.6-4.4c3-0.7,6.1-1.2,9.3-1.4c3-0.1,6.1-0.2,9.1-0.1c4.9,0.1,9.7,0.9,14.4,2.1
		c4,1,7.8,2.4,11.5,4.2c3.6,1.8,7.1,3.6,10.3,5.9c1.9,1.4,3.7,3,5.5,4.5c2,1.6,3.7,3.5,5.6,5.3c1.9,1.9,3.7,4,5.3,6.3
		c1.6,2.3,3.3,4.6,4.5,7.1c2.2,4.2,4.2,8.4,5.5,12.9c0.9,3,1.7,6,2.2,9.1c0.3,1.6,0.5,3.2,0.6,4.8c0.2,2.6,0.3,5.3,0.2,7.9
		c-0.1,4.6-0.6,9.2-1.5,13.8c-0.8,3.7-2.2,7.2-3.2,10.8c-0.3-0.1-0.6-0.3-0.7-0.6c-0.2-0.6,0.1-1.1,0.2-1.6c2-5.6,3.3-11.4,3.8-17.4
		c0.9-11.5-0.6-22.7-5.2-33.3c-1.2-2.8-2.8-5.4-4.1-8.1c-0.1-0.5-0.2-1-0.5-1.4c-2.1-3.3-4.5-6.3-7-9.2c-0.3-0.3-0.6-0.6-0.9-0.7
		c-0.1-0.1-0.3-0.2-0.4-0.4c-0.7-1-1.5-1.9-2.5-2.5c-0.1-0.1-0.3-0.2-0.4-0.3c-0.9-1.4-2.3-2.3-3.5-3.3c-2.3-1.9-4.7-3.7-7.3-5.2
		c-0.1,0-0.2-0.1-0.3-0.2c-0.3-0.3-0.6-0.5-1.1-0.6c-0.1,0-0.2-0.1-0.3-0.2c-0.4-0.4-0.9-0.7-1.6-0.7c-0.2,0-0.4-0.1-0.6-0.3
		c-1-0.8-2-1.3-3.3-1.6c-0.2-0.1-0.4-0.2-0.6-0.3c-1.4-1-3-1.4-4.6-2c-2.7-1-5.5-1.8-8.4-2.4c-3.8-0.8-7.6-1.4-11.5-1.4
		c-0.9,0-1.8-0.3-2.7-0.3c-8.5,0.1-16.7,1.4-24.6,4.5c-0.1,0.1-0.2,0.1-0.3,0.1c-0.6,0.1-1.2,0.4-1.7,0.7c-0.1,0.1-0.2,0.1-0.3,0.1
		c-1.9,0.8-3.7,1.7-5.4,2.7c-0.2,0.1-0.4,0.2-0.6,0.3c-0.5,0.1-0.9,0.4-1.2,0.7c-0.4,0.3-0.8,0.6-1.2,0.8c-1,0.4-1.9,1.1-2.7,1.7
		c-0.1,0.1-0.2,0.1-0.3,0.2c-1.8,1.2-3.6,2.6-5.2,4.1c-0.1,0.1-0.2,0.1-0.3,0.2c-0.8,0.5-1.3,1.3-2.1,1.8c-1.3,1.1-2.5,2.2-3.5,3.6
		c-2.8,3-5.3,6.2-7.5,9.6c-0.1,0.1-0.1,0.2-0.2,0.3c-0.2,0.3-0.5,0.6-0.8,0.8C418.2,61.7,418,61.7,417.8,61.6z"/>
	<path class="st13" d="M421.4,133c0.6,0.1,0.7,0.6,1,1c2.8,4.3,6.1,8.3,9.8,11.8c5.3,4.9,11.1,8.9,17.8,11.9
		c5.2,2.3,10.5,3.9,16.1,4.8c2,0.3,3.9,0.5,5.9,0.6c2.1,0,4.3,0.4,6.4,0.2c3.2-0.3,6.5-0.4,9.7-1.1c2.8-0.6,5.6-1.2,8.3-2.1
		c3.4-1.2,6.6-2.6,9.8-4.4c4.8-2.6,9.1-6,13.1-9.7c3.8-3.5,7-7.5,9.9-11.7c0.8-1.2,1.8-2.5,2.3-4c0.1-0.3,0.2-0.5,0.6-0.5
		c0.2,0.3,0.7,0.2,0.8,0.6c-0.2,1.1-0.9,1.9-1.4,2.8c-2.2,3.8-5,7.2-7.9,10.5c-3.1,3.5-6.6,6.4-10.4,9.2c-4,3-8.5,5.2-13.1,7.1
		c-3.1,1.3-6.4,2.2-9.7,3c-3.7,0.9-7.5,1.2-11.4,1.5c-5.7,0.4-11.4-0.2-17-1.4c-9.5-2.1-18.2-6-25.8-12.1c-5.9-4.7-11-10.1-15-16.5
		c-0.2-0.3-0.5-0.6-0.6-0.9C420.8,133.2,421.1,133,421.4,133z"/>
	<path class="st14" d="M529.7,62.4c-0.3-1.2-1.2-2.1-2-2.9c-2.1-2.3-3.7-4.9-6.1-7c-2-1.7-3.7-3.7-5.7-5.3c-1.7-1.4-3.6-2.7-5.5-3.9
		c-3-2-6.1-4-9.5-5.3c-3.7-1.5-7.4-2.8-11.3-3.4c-1.9-0.3-3.8-1.1-5.7-1c-1.6,0.1-3-0.3-4.6-0.2c-1.3,0.1-2.7-0.4-4.1-0.4
		c-5.3,0-10.6,0.6-15.7,2c-3.6,1-7.2,2.4-10.6,4c-3.8,1.8-7.5,3.8-10.8,6.5c-2.5,2-4.9,4.1-7.2,6.4c-2.6,2.6-4.9,5.4-7.2,8.3
		c-0.6,0.7-0.9,1.7-1.6,2.4c-0.3,0.3-0.5,0.5-0.9,0.5c-0.2-0.1-0.3-0.2-0.5-0.2c0.8-1.9,2.1-3.4,3.3-5c1.8-2.4,3.8-4.7,5.9-6.8
		c2.5-2.5,5.2-4.8,8.1-6.9c4.1-3.1,8.5-5.4,13.1-7.6c1-0.5,2.1-0.7,3-1.2c4.7-1.6,9.6-2.9,14.6-3.3c7-0.6,14-0.4,20.9,1.1
		c5.4,1.2,10.7,3,15.6,5.5c5.1,2.6,9.8,5.7,14,9.6c4.2,3.9,8.2,8,11.2,12.9c0.3,0.4,0.7,0.8,0.4,1.4
		C530.5,62.4,530.1,62.4,529.7,62.4z"/>
	<path class="st12" d="M535.7,132.3c-1.6,2.6-3.1,5.3-5,7.7c-1.9,2.4-4,4.8-6.2,7c-2.9,2.9-5.8,5.7-9.2,8.1
		c-3.6,2.6-7.5,4.6-11.5,6.6c-2.1,1-4.2,1.9-6.4,2.6c-4.9,1.5-9.8,2.6-14.9,3.1c-2.1,0.2-4.3,0.3-6.4,0.3c-3.5-0.1-7-0.2-10.4-0.8
		c-3.9-0.6-7.8-1.6-11.5-2.7c-2.7-0.8-5.3-2.1-7.9-3.3c-4-1.9-7.9-4.2-11.4-6.9c-2.2-1.7-4.3-3.4-6.2-5.5c-1.6-1.8-3.5-3.3-5.1-5.2
		c-2.3-2.7-4.4-5.4-6.1-8.5c0.2-0.2,0.4-0.2,0.7-0.2c0.7,0,0.9,0.6,1.1,1.1c2.6,4,5.7,7.8,9.1,11.1c4.3,4.3,9.1,8.1,14.4,11.1
		c8.2,4.7,17.1,7.4,26.4,8.3c13.6,1.3,26.6-1.1,38.7-7.7c4.7-2.6,9-5.8,12.9-9.5c5.2-4.8,9.7-10.2,13.2-16.3
		c0.2-0.3,0.4-0.7,0.8-0.8C535.2,131.9,535.4,132.1,535.7,132.3z"/>
	<path class="st15" d="M419,134.1c0.3-0.2,0.6-0.4,1-0.4c0.5-0.1,0.7,0.4,0.9,0.7c2.4,4,5.4,7.6,8.7,10.9c4.6,4.7,9.8,8.6,15.7,11.7
		c3.9,2.1,8,3.9,12.3,5c3.8,1.3,7.7,1.8,11.6,2.3c1.9,0.3,3.9,0.1,5.8,0.4c2.3,0.3,4.6-0.1,6.9-0.3c3.9-0.3,7.8-1,11.6-2.1
		c8.8-2.4,16.6-6.7,23.6-12.5c6.2-5.2,11.3-11.2,15.4-18.2c0.3-0.5,0.5-1.1,1.3-0.8c0.3,0.1,0.5,0.3,0.7,0.5
		c-3.7,6.5-8.2,12.4-13.8,17.4c-3.7,3.4-7.8,6.4-12.2,8.9c-4.8,2.7-9.9,4.9-15.2,6.3c-3.5,0.9-7.1,1.5-10.7,1.9
		c-3.6,0.4-7.2,0.4-10.8,0.2c-6.5-0.4-12.9-1.7-19.1-3.9c-2.1-0.8-4.3-1.6-6.3-2.7c-4.3-2.2-8.5-4.8-12.3-7.9
		c-5.7-4.7-10.7-10.1-14.7-16.3C419.3,134.9,419,134.6,419,134.1z"/>
	<path class="st16" d="M425.5,66c1.4-1.8,2.4-3.8,3.9-5.5c1.5-1.7,3-3.3,4.4-5.1c0.7-0.9,1.5-1.4,2.3-2.1c3.3-3.1,6.9-5.9,10.8-8.2
		c3-1.8,6.3-3.1,9.6-4.3c3.4-1.3,7-2.1,10.6-2.7c4.2-0.7,8.5-0.7,12.7-0.5c3.5,0.2,7,0.8,10.4,1.6c6.8,1.6,13.2,4.3,18.9,8.3
		c3.5,2.4,6.7,5,9.6,8.1c2,2.2,4.1,4.3,5.7,6.8c-0.3,0-0.6,0-0.9,0c-0.1,0-0.2,0-0.3,0c-0.6-0.1-0.9-0.6-1.2-1.1
		c-4.3-5.4-9.3-10-15.1-13.7c-7.5-4.8-15.7-7.5-24.6-8.5c-2.1-0.2-4.1-0.5-6.2-0.4c-5.5,0.1-10.9,0.8-16.2,2.3
		c-3.7,1.1-7.3,2.6-10.7,4.4c-8,4.3-14.6,10.3-20,17.6c-0.9,1.3-1.6,2.8-2.9,3.8C425.9,66.6,425.7,66.3,425.5,66z"/>
	<path class="st17" d="M426.2,129.4c0.2-0.2,0.5-0.5,0.7-0.7c0.8,0.5,1.1,1.3,1.6,2c4.6,6.9,10.4,12.7,17.6,17.1
		c5.5,3.3,11.3,5.8,17.6,7.2c5.9,1.3,11.8,1.6,17.8,1.1c8.2-0.7,15.9-3.1,23-7.3c5.2-3,9.8-6.8,13.8-11.3c3.5-3.9,6.3-8.1,8.8-12.7
		c0.2-0.3,0.3-0.8,0.8-0.7c0.2,0.2,0.4,0.5,0.4,0.8c0.3,0.7-0.1,1.1-0.4,1.7c-3.3,6.2-7.5,11.6-12.7,16.3c-3.9,3.5-8.1,6.5-12.9,8.9
		c-5.2,2.6-10.6,4.4-16.2,5.3c-4.9,0.8-9.9,1-14.9,0.6c-3.7-0.3-7.3-0.8-10.8-1.9c-3.5-1.1-6.9-2.4-10.3-4
		c-7.7-3.7-13.9-9.2-19.4-15.6c-1.5-1.7-2.8-3.6-4.1-5.5C426.3,130.3,425.9,129.9,426.2,129.4z"/>
	<path class="st18" d="M426.2,129.4c0.9,1.9,2.2,3.6,3.5,5.3c2.2,2.7,4.6,5.2,7.1,7.6c3,2.9,6.3,5.3,9.9,7.4c4,2.3,8.3,4.2,12.7,5.6
		c3.7,1.1,7.5,1.7,11.3,2.1c2.8,0.3,5.5,0.2,8.2,0.2c4.2-0.1,8.3-0.8,12.3-1.9c2.9-0.8,5.7-1.7,8.4-3c4.3-2,8.3-4.3,12-7.3
		c2.6-2.1,5-4.4,7.2-6.8c2.6-2.9,5.1-5.9,6.9-9.4c0.8-1.4,1.8-2.7,2.3-4.3c0.2,0.3,0.3,0.6,0.5,0.8c0.3,0.7-0.2,1.3-0.5,1.9
		c-2.4,4.5-5.4,8.5-8.9,12.3c-2.8,3-5.9,5.8-9.2,8.2c-7,5-14.7,8.2-23.1,9.7c-4.5,0.8-9,1.2-13.5,0.9c-6.8-0.4-13.5-1.6-19.9-4.4
		c-0.5-0.2-1.1-0.4-1.7-0.7c-4.5-2-8.6-4.5-12.5-7.5c-5.5-4.3-10-9.5-13.9-15.4c-0.1-0.2-0.3-0.4-0.1-0.7
		C425.7,129.8,426,129.6,426.2,129.4z"/>
	<path class="st19" d="M419,134.1c1.3,1.2,2,2.8,3.1,4.2c3.4,4.6,7.3,8.7,11.7,12.4c3,2.5,6.1,4.7,9.5,6.6c1.6,0.9,3.2,1.7,4.9,2.5
		c4.1,1.9,8.4,3.4,12.8,4.4c3,0.7,6,1.1,9,1.4c3.6,0.4,7.2,0.3,10.7,0.2c3.4-0.2,6.8-0.7,10.1-1.5c2.5-0.6,4.9-1.2,7.3-2.1
		c3.5-1.3,6.8-2.9,10.1-4.7c3-1.6,5.7-3.6,8.4-5.6c3.3-2.6,6.4-5.4,9.1-8.6c1.9-2.2,3.7-4.4,5.3-6.8c1-1.5,1.9-2.9,2.8-4.4
		c0.2-0.3,0.3-0.7,0.8-0.7c0.1,0.1,0.3,0.2,0.4,0.3c-1.7,2.9-3.4,5.7-5.4,8.3c-3.1,3.9-6.4,7.4-10.2,10.7c-4.6,4-9.6,7.3-15.2,9.9
		c-5.5,2.6-11.4,4.3-17.4,5.3c-3.1,0.5-6.2,0.6-9.3,0.7c-8.7,0.3-17.1-1.2-25.3-4.2c-5.2-1.9-10-4.5-14.5-7.7
		c-2.7-1.9-5.1-4-7.6-6.2c-4.4-4-8.1-8.6-11.4-13.6c-0.1-0.2-0.3-0.4-0.4-0.6C418.5,134.2,418.7,134.2,419,134.1z"/>
	<path class="st20" d="M523.9,110.4c-0.6,0.4-0.5,1.1-0.7,1.6c-1.4,4.9-3.5,9.5-6.4,13.8c-2.1,3.2-4.5,6.2-7.3,8.9
		c-6.8,6.5-14.7,10.9-24.1,12.6c-3.7,0.7-7.4,1.1-11.1,0.9c-6.2-0.3-12.3-1.6-18-4.1c-5.1-2.3-9.6-5.3-13.6-9.1
		c-4.3-4.1-7.9-8.8-10.7-14.1c-0.1-0.2-0.3-0.3-0.5-0.5c-0.1-0.6,0.2-1.1,0.3-1.7c0.6,0,0.7,0.6,0.9,1c2.8,5.7,6.6,10.7,11.3,14.9
		c5.1,4.7,11,8.2,17.7,10.2c5.7,1.7,11.5,2.4,17.4,2.1c10-0.6,18.9-4.1,26.7-10.5c5.8-4.8,10.2-10.5,13.5-17.2
		c1.6-3.2,2.7-6.7,3.5-10.2c0.1-0.4,0.1-0.9,0.5-1.2c0.1,0,0.2,0,0.3,0.1C523.7,108.8,523.8,109.6,523.9,110.4z"/>
	<path class="st21" d="M530,127.3c-1.5,2.3-2.6,4.7-4.3,7c-1.4,1.9-2.9,3.8-4.4,5.6c-0.8,1-1.8,1.9-2.7,2.8c-1.6,1.5-3.2,3.1-5,4.4
		c-1.3,1-2.6,1.9-3.9,2.8c-1.2,0.9-2.5,1.7-3.8,2.4c-1,0.6-2,1-3.1,1.5c-3.1,1.5-6.2,2.7-9.5,3.7c-2.8,0.9-5.8,1.3-8.7,1.8
		c-1.4,0.2-2.8,0.1-4.2,0.5c-1,0.3-2.1-0.2-3.2,0c-1.7,0.3-3.4,0.1-5.1,0c-2.3-0.1-4.7-0.5-7-0.9c-3.8-0.5-7.3-1.9-10.8-3.2
		c-3.3-1.1-6.4-2.8-9.4-4.7c-3-1.8-5.9-3.9-8.6-6.2c-2.1-1.8-4.1-3.8-5.9-5.9c-1.9-2.3-3.8-4.6-5.3-7.2c-0.2-0.3-0.5-0.7-0.5-1.1
		c0.1-0.1,0.3-0.2,0.4-0.4c0.2,0.1,0.3,0.1,0.4,0.3c0.7,1.2,1.5,2.4,2.4,3.5c0.4,0.4,0.6,0.8,0.9,1.3c0.2,0.3,0.4,0.6,0.6,0.9
		c0.1,0.1,0.1,0.2,0.2,0.2c0.2,0.4,0.6,0.7,0.9,1c0.2,0.2,0.4,0.4,0.5,0.6c0.3,0.5,0.7,0.9,1.2,1.3c0.3,0.4,0.7,0.7,1,1.1
		c0.5,0.8,1.1,1.6,2.1,2c0.4,0.3,0.7,0.7,1,1c0.4,0.4,0.8,0.9,1.3,1.2c0.1,0.1,0.3,0.2,0.4,0.3c0.3,0.3,0.6,0.6,1,0.8
		c0.1,0.1,0.2,0.1,0.3,0.2c0.3,0.2,0.6,0.5,0.9,0.7c0.7,0.4,1.3,0.9,1.9,1.4c0.4,0.4,0.9,0.7,1.4,1c0.5,0.3,1,0.6,1.5,1
		c0.9,0.7,1.8,1.2,2.9,1.6c1.7,0.7,3.2,1.8,5,2.4c0.1,0,0.2,0.1,0.3,0.1c2.7,1.2,5.4,2.1,8.3,2.7c0.1,0,0.2,0.1,0.4,0.1
		c1.3,0.4,2.5,0.6,3.8,0.8c0.2,0,0.3,0,0.5,0.1c0.3,0.1,0.7,0.2,1,0.2c0.2,0,0.3,0,0.5,0.1c0.6,0.1,1.1,0.4,1.7,0.3
		c0.1,0,0.2,0,0.3,0c0.7,0,1.4,0.3,2.1,0.2c0.2,0,0.5,0,0.7,0c2.4,0.1,4.8,0.2,7.3,0c5.1-0.2,10.2-1,15-2.7
		c7-2.3,13.2-5.9,18.9-10.6c4.8-3.9,8.7-8.5,12.2-13.6c1-1.4,1.8-3,2.7-4.5c0.2-0.3,0.3-0.8,0.7-0.9
		C529.5,126.7,529.7,127,530,127.3z"/>
	<path class="st20" d="M527.8,124.1c-1.4,2.3-2.6,4.6-4.1,6.9c-2.5,3.9-5.5,7.4-8.9,10.5c-5.2,4.7-10.9,8.6-17.5,11.1
		c-5.1,2-10.3,3.3-15.8,3.8c-3.1,0.3-6.2,0.3-9.3,0.1c-6.4-0.4-12.6-1.8-18.5-4.4c-4-1.8-7.8-3.7-11.3-6.3c-3.3-2.5-6.4-5.1-9.1-8.3
		c-2.4-2.8-4.7-5.6-6.5-8.8c0.1-0.2,0.3-0.3,0.4-0.5c1.6,1.9,2.7,4.1,4.3,6c2.6,3.1,5.3,6,8.4,8.6c2.7,2.3,5.6,4.3,8.7,6
		c5.8,3.1,11.9,5.4,18.4,6.3c2.8,0.4,5.7,0.7,8.5,0.7c4.2,0,8.4-0.5,12.5-1.3c6.9-1.5,13.3-4.2,19.2-8.2c4.4-3,8.2-6.6,11.7-10.7
		c3.3-3.8,5.8-8.1,8.2-12.5C527.6,123.4,527.7,123.7,527.8,124.1z"/>
	<path class="st22" d="M457.4,162.2c-2.1-0.2-4-1.2-6-1.9c-3.4-1.3-6.6-2.9-9.7-4.9c-2.7-1.7-5.5-3.5-7.9-5.8
		c-1.2-1.2-2.6-2.2-3.8-3.4c-2.5-2.6-5-5.2-7-8.1c-1-1.5-2-2.9-3-4.4c0.2-0.1,0.3-0.2,0.5-0.2c0.3,0,0.5,0,0.7,0.3
		c2.2,3.6,4.8,6.9,7.7,10c4.9,5.1,10.3,9.5,16.6,12.8c4,2.1,8.2,3.9,12.6,5.1c4.4,1.2,8.9,2,13.5,2.3c5,0.3,10,0,15-0.7
		c5-0.8,9.7-2.1,14.4-4.1c4.3-1.9,8.5-4.1,12.4-6.8c2-1.4,3.8-3.1,5.7-4.7c4.2-3.6,7.7-7.9,10.8-12.5c1.1-1.6,2-3.2,3-4.8
		c0.1,0.1,0.1,0.2,0.2,0.3c0.2,0.3,0,0.6-0.1,0.9c-3.8,6.4-8.4,12.1-13.9,17.1c-4.5,4-9.5,7.4-14.9,10.1c-6,2.9-12.3,4.7-18.9,5.6
		c-2.9,0.4-5.8,0.6-8.7,0.6C470.1,164.9,463.7,164,457.4,162.2z"/>
	<path class="st23" d="M534,62.2c0.4,1.2,1.2,2.2,1.7,3.2c3.4,6.4,5.7,13.2,7,20.4c1,5.6,1.2,11.3,0.8,16.9c-0.4,7-2,13.7-4.5,20.3
		c-0.3-0.2-0.6-0.4-0.8-0.7c0.6-1.4,0.8-2.8,1.5-4.1c0.3-0.4,0.5-0.9,0.5-1.4c0-0.2,0.1-0.3,0.1-0.5c0.2-0.4,0.4-0.8,0.3-1.3
		c0-0.4,0.1-0.7,0.3-1c0.4-0.7,0.4-1.4,0.5-2.2c0-0.1,0-0.2,0.1-0.4c0.2-0.6,0.4-1.1,0.3-1.7c0-1.1,0.2-2.1,0.4-3.2
		c0.1-0.4,0.4-0.8,0.2-1.3c0-0.2,0-0.3,0-0.5c0.1-0.8,0.5-1.5,0.2-2.4c0-0.2,0-0.4,0-0.5c0.1-1.2,0.3-2.4,0.3-3.7c0-0.1,0-0.3,0-0.4
		c0.2-0.9-0.3-1.8-0.2-2.8c0-0.6-0.3-1.2-0.1-1.8c0.2-0.6,0.2-1.1-0.1-1.7c-0.1-0.3-0.2-0.5-0.1-0.8c0.1-0.5,0.2-0.9-0.1-1.4
		c-0.1-0.2-0.1-0.4-0.1-0.6c0.1-0.4,0.1-0.8-0.1-1.2c-0.1-0.2-0.2-0.5-0.2-0.7c0.1-0.4,0-0.7-0.2-1c-0.2-0.4-0.2-0.9-0.2-1.3
		c0-0.3,0-0.7-0.2-1c-0.3-0.7-0.5-1.4-0.5-2.2c0-0.3,0-0.5-0.1-0.8c-0.1-0.2-0.2-0.4-0.2-0.6c0-0.4-0.1-0.7-0.3-1
		c-0.1-0.3-0.3-0.6-0.3-1c-0.1-1-0.2-1.9-0.9-2.7c-0.2-0.2-0.3-0.5-0.3-0.8c0-0.7-0.2-1.3-0.5-1.8c0-0.1-0.1-0.2-0.1-0.3
		c-0.1-0.5-0.4-1-0.7-1.4c-0.3-0.4-0.5-0.9-0.7-1.4c-0.2-0.4-0.4-0.8-0.5-1.2c-0.1-0.4-0.2-0.8-0.5-1.1c-1.2-2.2-2.5-4.4-3.9-6.4
		c-2.5-3.8-5.4-7.4-8.7-10.6c-3.3-3.3-6.8-6.3-10.7-8.8c-2.1-1.3-4.2-2.6-6.3-3.8c-0.4-0.4-0.9-0.6-1.5-0.7
		c-2.1-0.9-4.3-1.8-6.4-2.7c-0.8-0.6-1.7-0.8-2.7-0.8c-3-0.7-5.9-1.6-8.9-2c-0.8-0.1-1.6,0-2.3-0.4c-0.5-0.3-1-0.2-1.5-0.1
		c-1.8-0.3-3.6-0.2-5.4-0.6c-0.9-0.2-1.8,0.5-2.6-0.1c-0.1-0.2-0.1-0.4,0.1-0.6c0.4-0.2,0.9-0.2,1.3-0.2c4.9,0.1,9.8,0.6,14.6,1.6
		c2.4,0.7,4.8,1.2,7.2,2.1c2,0.7,4,1.4,6,2.4c0.1,0.2,0.3,0.2,0.5,0.2c1.1,0.5,2.3,1,3.4,1.7c0.1,0.2,0.3,0.2,0.5,0.2
		c0.6,0.3,1.2,0.5,1.7,1c0.4,0.2,0.8,0.4,1.2,0.7c4.1,2.5,7.8,5.3,11.3,8.6c0.1,0.1,0.2,0.2,0.2,0.2c1,0.8,1.9,1.7,2.6,2.6
		c0.1,0.1,0.2,0.2,0.2,0.2C528.7,54.3,531.5,58.1,534,62.2z"/>
	<path class="st17" d="M523.4,108c-0.7,2-1.1,4.1-1.8,6.1c-1.3,4-3.2,7.7-5.5,11.2c-2.1,3.1-4.4,6.1-7.1,8.7
		c-6.7,6.4-14.5,10.8-23.7,12.6c-4,0.8-8.1,1.1-12.2,0.8c-9.9-0.7-18.8-3.9-26.6-10.2c-6.1-4.9-10.9-10.9-14.3-18
		c-0.1-0.1-0.2-0.3-0.3-0.4c-0.1-0.3,0-0.5,0.2-0.7c0.5-0.1,0.7,0.3,0.8,0.7c2.4,5.4,5.8,10.1,10,14.3c2.7,2.7,5.7,5.1,9,7
		c5,2.9,10.3,5,16,5.9c4.5,0.7,9,0.9,13.5,0.4c4.5-0.5,8.7-1.6,12.9-3.3c3.6-1.5,6.9-3.5,10-5.8c2.3-2,4.6-4,6.7-6.3
		c1.3-1.4,2.5-2.9,3.6-4.4c1.2-1.8,2.4-3.7,3.5-5.7c1-1.7,1.7-3.5,2.4-5.4c1.1-3.1,2.1-6.2,2.5-9.4c0-0.3,0-0.8,0.6-0.9
		c0,0.5,0,0.9,0,1.4C523.6,107,523.6,107.5,523.4,108z"/>
	<path class="st14" d="M536.4,119.8c1-1.1,1.1-2.6,1.4-4c0.3-1.9,1.1-3.7,1.4-5.6c0.6-3.3,0.8-6.6,1-9.9c0.1-1.2,0.3-2.5,0-3.8
		c-0.4-1.8-0.1-3.7-0.7-5.5c-0.2-0.7-0.1-1.5-0.1-2.3c-0.6-7.1-2.8-13.8-6-20.2c-0.5-1.1-1.1-2.1-0.9-3.3c0.7-0.1,0.9,0.4,1.1,0.9
		c1.8,3.2,3.2,6.6,4.4,10.1c1.5,4.7,2.7,9.4,3.1,14.3c0.4,3.9,0.4,7.8,0.2,11.7c-0.2,3.2-0.6,6.4-1.3,9.6c-0.6,2.8-1.3,5.6-2.3,8.3
		c-0.1,0.3-0.3,0.7-0.6,0.8C536.8,120.6,536.5,120.3,536.4,119.8z"/>
	<path class="st24" d="M466.1,158.2c-0.2,0-0.3,0-0.5,0c-1.3-0.5-2.7-0.6-4.1-1c-2.9-0.8-5.8-1.7-8.6-2.9c-0.1,0-0.2,0-0.2,0
		c-0.3-0.3-0.9-0.3-0.7-1c3.1,1.1,6.2,2.4,9.5,3.2c3.4,0.8,6.9,1.4,10.5,1.7c2.1,0.2,4.2,0.3,6.3,0.2c6.6-0.3,13-1.5,19.2-3.8
		c4.7-1.8,9-4.3,13.1-7.2c2.1-1.5,4.1-3.3,6-5.1c3.6-3.5,6.8-7.2,9.5-11.4c1-1.6,2.1-3.3,2.8-5.1c0.2,0.2,0.3,0.5,0.5,0.7
		c-1,2.6-2.4,4.8-4,7c-2.4,3.3-5,6.4-7.9,9.2c-2.9,2.7-6,5.2-9.4,7.4c-3.5,2.2-7.2,4.1-11.1,5.6c-4.4,1.7-9,2.6-13.6,3.1
		c-1.1,0.1-2.3,0.3-3.4,0.2c-0.9-0.3-1.9,0-2.8,0c-1.5,0.1-3.1-0.3-4.6,0c-0.2,0-0.5,0-0.7,0c-0.7-0.2-1.4-0.3-2.2-0.2
		c-0.1,0-0.2,0-0.2,0c-0.6,0.1-1.1-0.4-1.7-0.2c-0.2,0-0.3,0-0.5,0C466.8,158.1,466.4,158.2,466.1,158.2z"/>
	<path class="st22" d="M530.9,62.4c-1-2.1-2.4-3.9-3.8-5.6c-2.1-2.5-4.4-4.8-6.7-7.1c-3.7-3.7-8-6.6-12.5-9.3
		c-4.4-2.6-9-4.6-13.9-5.9c-3.5-0.9-7.1-1.9-10.8-2.1c-3.3-0.2-6.6-0.4-10-0.3c-3.5,0.2-6.9,0.4-10.3,1.1c-3,0.6-5.9,1.4-8.8,2.4
		c-0.1-0.3,0-0.5,0.2-0.7c1.9-1.1,4-1.8,6.1-2.2c3.4-0.7,6.8-1.3,10.3-1.5c2.6-0.1,5.2-0.3,7.9-0.1c3,0.2,6,0.5,9,1
		c2.9,0.5,5.8,1.2,8.6,2.2c2.7,0.9,5.4,1.9,8,3c2.5,1.2,4.9,2.8,7.2,4.2c1.3,0.8,2.4,1.7,3.7,2.5c0.1,0.1,0.2,0.1,0.3,0.2
		c2.1,1.8,4.2,3.7,6.5,5.4c0.2,0.2,0.4,0.4,0.5,0.6c0.2,0.3,0.4,0.5,0.7,0.7c0.1,0.1,0.3,0.2,0.4,0.3c0.8,1.3,1.9,2.4,3,3.4
		c0.1,0.1,0.1,0.2,0.2,0.3c1.2,1.5,2.4,3.1,3.6,4.6c0.1,0.1,0.1,0.2,0.2,0.3c0.2,0.6,0.6,1,0.9,1.5c0.3,0.4,0.7,0.7,0.3,1.3
		C531.4,62.4,531.1,62.4,530.9,62.4z"/>
	<path class="st11" d="M532.6,78.5c0-1.1,0-2.2,0-3.7c0.8,1.9,1.4,3.6,1.9,5.4c0.8,2.7,1.3,5.5,1.8,8.3c0.4,2,0.4,3.9,0.5,5.9
		c0.2,4.1,0,8.3-0.6,12.4c-0.4,2.7-1.1,5.4-1.6,8c0,0.2-0.2,0.4-0.3,0.6c-0.2-0.9-0.5-1.8-0.7-2.6c0.8-3.8,1.5-7.7,1.7-11.6
		c0.1-4.1,0.2-8.3-0.5-12.4C534.2,85.3,533.2,81.9,532.6,78.5z"/>
	<path class="st25" d="M537.1,120.9c1.6-4.3,2.7-8.7,3.4-13.3c0.6-3.8,0.8-7.7,0.7-11.6c-0.2-5.3-0.9-10.5-2.2-15.6
		c-1.2-4.6-3.1-8.9-5-13.2c-0.3-0.7-0.6-1.6-1.4-2c0-0.5,0-1,0-1.4c1,0.3,1.1,1.4,1.7,2.1c0.1,0.1,0.1,0.2,0.2,0.3
		c0.2,0.4,0.4,0.7,0.6,1.1c0.1,0.1,0.1,0.2,0.2,0.3c0.4,0.8,0.8,1.6,1.1,2.4c0.1,0.1,0.1,0.2,0.2,0.3c1.9,4.1,3.2,8.3,4.1,12.7
		c0.6,2.7,0.8,5.5,1.2,8.3c0.3,2.1,0.2,4.2,0.3,6.3c0.1,2.6,0,5.3-0.4,8c-0.7,5.1-1.7,10.1-3.4,14.9c-0.2,0.4-0.2,0.9-0.6,1.3
		C537.5,121.5,537.3,121.3,537.1,120.9z"/>
	<path class="st22" d="M457.4,162.2c2.1,0.2,4,0.9,6.1,1.2c2.5,0.4,5.1,0.8,7.7,1c3,0.3,5.9,0.3,8.9,0.1c3.2-0.2,6.5-0.7,9.6-1.3
		c3.6-0.7,7.2-1.8,10.6-3.2c5.5-2.3,10.7-5.2,15.3-9c2.6-2.1,5.2-4.4,7.5-6.8c3-3.1,5.8-6.4,7.9-10.2c0.7-1.2,1.6-2.2,2-3.5
		c0.3,0.2,0.5,0.3,0.8,0.5c-1.1,0.3-1.2,1.4-1.7,2.2c-2.2,3.5-4.7,6.9-7.5,10c-5.7,6.4-12.3,11.5-20,15.3
		c-5.2,2.7-10.8,4.4-16.6,5.4c-3.2,0.6-6.4,0.8-9.7,1c-6.7,0.3-13.2-0.5-19.7-2.2C458.3,162.7,457.8,162.6,457.4,162.2z"/>
	<path class="st16" d="M532.6,78.5c1.3,3,1.9,6.2,2.4,9.4c0.6,3.4,0.8,6.9,0.7,10.3c-0.1,4.6-0.6,9.2-1.6,13.6
		c-0.1,0.4-0.1,0.7-0.5,0.9c-0.2-0.9-0.3-1.8-0.5-2.6c1.7-9.3,1.5-18.6-0.5-27.8C532.6,81.1,532.6,79.8,532.6,78.5z"/>
	<path class="st26" d="M537.8,121.8c0.6-2.7,1.7-5.2,2.2-7.9c0.8-3.6,1.4-7.2,1.7-10.9c0.1-2.3,0-4.6,0.1-6.9
		c0.1-4.2-0.7-8.3-1.3-12.4c-0.4-2.3-1.1-4.5-1.8-6.7c-0.8-2.3-1.6-4.5-2.5-6.8c0.3-0.1,0.5,0,0.8,0.2c0.9,1,1.2,2.3,1.6,3.6
		c1.7,4.5,2.9,9.2,3.5,14c0.4,3.4,0.7,6.9,0.7,10.3c0,4.8-0.6,9.6-1.5,14.3c-0.6,3-1.6,5.9-2.6,8.8c-0.1,0.3-0.2,0.6-0.6,0.7
		C538,121.9,537.9,121.8,537.8,121.8z"/>
	<path class="st27" d="M538,122c1.7-4.5,2.9-9.1,3.6-13.8c0.6-3.9,0.7-7.7,0.7-11.6c0-8.4-1.7-16.5-4.8-24.2c-0.3-0.7-0.3-1.5-1-2
		c-0.2-0.3-0.3-0.6-0.1-0.9c0.1-0.1,0.2-0.1,0.3-0.1c0.2,0.5,0.5,1,0.7,1.4c0.3,0.4,0.5,1,0.7,1.4c0.3,0.6,0.3,1.3,0.7,1.9
		c0,0.3,0,0.5,0.2,0.7c0.4,0.9,0.7,1.9,1,2.9c0.1,0.3,0.2,0.6,0.2,1c0.2,0.3,0.2,0.6,0.2,1c0.1,0.2,0.2,0.3,0.2,0.5
		c0,0.3,0.1,0.5,0.2,0.7c0,0.8,0.3,1.6,0.5,2.4c0.1,0.3,0,0.7,0.2,1c0,0.5,0,1,0.2,1.4c-0.2,0.3,0.4,0.6,0,1
		c0.1,0.2,0.2,0.5,0.2,0.7c-0.1,0.4,0.1,0.8,0,1.2c0.1,0.2,0.2,0.3,0.2,0.5c-0.2,0.5,0.4,1,0,1.4c0.1,0.2,0.2,0.5,0.2,0.7
		c-0.3,0.6,0.3,1.1,0,1.7c-0.1,0.7,0.2,1.3,0.2,1.9c-0.4,1,0.2,1.9,0,2.9c0,0.1,0,0.2,0,0.2c-0.1,1.3-0.1,2.6-0.2,3.8
		c0,0.2,0,0.3,0,0.5c0.1,0.8-0.1,1.6-0.2,2.4c0,0.2,0,0.3,0,0.5c0.2,0.4-0.3,0.8,0,1.2c-0.3,1.1-0.5,2.2-0.5,3.4
		c-0.2,0.5-0.3,1.1-0.5,1.7c0,0.1,0,0.2,0,0.2c-0.2,0.8-0.3,1.6-0.5,2.4c-0.4,0.3-0.2,0.6-0.2,1c-0.2,0.4-0.1,0.9-0.5,1.2
		c0,0.2,0,0.3,0,0.5c-0.2,0.5-0.2,1-0.5,1.4c-0.4,1.1-0.8,2.1-1.1,3.2c-0.1,0.4-0.2,0.8-0.6,0.9C538.2,122.1,538.1,122.1,538,122z"
		/>
	<path class="st28" d="M536.6,69.4c0,0.3,0,0.6,0,1c-0.2-0.1-0.3-0.2-0.5-0.2c-0.2-1-0.7-1.8-1.2-2.6c-0.1-0.5-0.4-0.8-0.7-1.2
		c-0.4-1.1-1.2-2-1.7-3.1c0-0.3,0-0.6-0.3-0.7c0,0-0.1,0-0.1,0l-0.1,0c-0.6-1-1.3-1.9-1.9-2.9v0c-1.2-1.7-2.5-3.2-3.8-4.8
		c-1-1.3-2.1-2.4-3.1-3.6c-0.1-0.1-0.2-0.2-0.2-0.2c-0.3-0.2-0.5-0.4-0.7-0.7c-0.2-0.1-0.4-0.3-0.5-0.5c-1.9-1.7-3.7-3.4-5.8-4.9
		c-0.3-0.2-0.5-0.4-0.7-0.6v0c-1.1-0.5-2-1.4-3-2.1c-4.9-3.2-9.9-6-15.6-7.6c-1.1-0.3-2.2-0.9-3.4-1.1c-0.2,0-0.4-0.2-0.4-0.4
		c0.2-0.4,0.6-0.4,0.9-0.3c3.4,0.9,6.6,2.2,9.8,3.7c3.8,1.7,7.3,3.9,10.7,6.2c2.8,1.9,5.4,4.1,7.8,6.6c1.9,2,3.9,3.9,5.6,6
		c2.3,2.9,4.3,5.9,6.2,9C535.1,65.8,536,67.5,536.6,69.4z"/>
	<path class="st29" d="M532.6,82.3c0.9,1.9,1,3.9,1.4,5.9c0.6,3.1,0.8,6.2,0.7,9.3c0,4-0.5,7.9-1.2,11.8c-0.1,0.3-0.2,0.6-0.4,0.8
		c-0.2-0.9-0.4-1.7-0.3-2.6c-0.1-2.3,0.2-4.5,0.5-6.8c0.3-3.3,0-6.5-0.2-9.8c-0.1-1.7-0.2-3.4-0.5-5.1
		C532.6,84.7,532.6,83.5,532.6,82.3z"/>
	<path class="st30" d="M523.4,105.1c-0.5,2-0.8,3.9-1.4,5.9c-0.7,2.2-1.3,4.5-2.3,6.6c-0.8,1.7-1.6,3.4-2.5,5.1
		c-1.6,2.8-3.5,5.5-5.6,7.9c-2.2,2.4-4.5,4.8-7.2,6.7c-0.1,0.1-0.2,0.1-0.2,0c2.1-2.1,4.3-4.1,6.4-6.3c1.3-1.3,2.6-2.8,3.6-4.3
		c1.4-1.9,2.6-4,3.8-6c0.9-1.6,1.6-3.3,2.2-5.1c0.9-2.7,1.9-5.4,2.3-8.2c0.2-1.4,0.5-2.9,0.7-4.4c0.4,0.5-0.1,1.2,0.3,1.7
		C523.4,104.8,523.4,105,523.4,105.1z"/>
	<path class="st31" d="M532.6,85.9c0.6,1.7,0.7,3.5,0.9,5.2c0.5,5.2,0.3,10.5-0.5,15.7c0,0.2-0.1,0.5-0.2,0.7
		c-0.3-1-0.2-2.1-0.3-3.1C532.5,98.3,532.6,92.1,532.6,85.9z"/>
	<path class="st26" d="M530.2,59.5c0.9,0.8,1.7,1.7,1.9,2.9c-0.2,0-0.3,0-0.5,0c0-0.7-0.6-1.1-0.9-1.6
		C530.4,60.4,530.1,60.1,530.2,59.5z"/>
	<path class="st30" d="M523.4,108c0-0.5,0-1,0-1.5c0.2,0.5,0.2,1,0.2,1.5C523.6,108,523.5,108,523.4,108z"/>
	<path class="st4" d="M523.1,67.9c0,3.4,0,6.7,0,10.1c-1,0.2-1-0.8-1.3-1.3c-1.3-3-3-5.8-4.8-8.4c-4.6-6.6-10.5-11.8-17.6-15.6
		c-5-2.7-10.4-4.6-16.1-5.4c-11.4-1.7-22.1,0.1-32.1,5.9c-3.8,2.2-7.4,4.8-10.5,8c-3.4,3.4-6.3,7.2-8.6,11.5c-0.3,0.6-0.7,1.2-1,1.8
		c-0.2,0.3-0.3,0.7-0.9,0.7c-0.5-1.8-1.2-3.6-2-5.3c-0.3-0.4,0-0.7,0.2-1.1c6.1-10,14.5-17.6,25.1-22.6c5-2.3,10.2-3.7,15.7-4.2
		c2.5-0.3,5-0.6,7.5-0.4c7.8,0.3,15.3,1.9,22.5,5.3c6.8,3.2,12.7,7.6,17.7,13.1C519.4,62.3,521.5,65,523.1,67.9z"/>
	<path class="st10" d="M523.1,67.9c-1.4-1.2-2.2-2.8-3.3-4.2c-4.9-6.3-10.8-11.4-17.9-15.2c-5.3-2.8-10.9-4.8-16.9-5.8
		c-3.6-0.6-7.3-1-10.9-0.8c-5.4,0.3-10.8,1.1-15.9,2.9c-5.4,1.9-10.3,4.6-14.8,8c-5.8,4.5-10.7,9.7-14.5,16.1
		c-0.2,0.4-0.7,0.6-0.7,1.1c-0.3-0.5-0.7-1.1-1-1.6c0.3-1.4,1.2-2.5,2-3.6c1.9-2.8,4.2-5.5,6.6-7.9c3.4-3.3,7-6.3,11-8.8
		c6.9-4.2,14.4-6.8,22.4-7.6c6.8-0.7,13.5-0.4,20.1,1.3c7.6,1.9,14.5,5.2,20.8,9.9c4.6,3.5,8.6,7.6,12.1,12.3
		c0.3,0.4,0.5,0.9,0.8,1.3C523.1,66,523.1,67,523.1,67.9z"/>
	<path class="st29" d="M523.2,85.9c0,1.5,0,3,0,4.6c-0.7-0.1-0.5-0.7-0.6-1.1c-0.4-1.9-0.6-3.9-1.4-5.7c-2-6.5-5.3-12.3-9.8-17.5
		c-3.5-4-7.4-7.3-12-10c-4.7-2.7-9.7-4.6-15-5.5c-4.1-0.7-8.1-0.9-12.2-0.6c-5.7,0.4-11.1,1.8-16.3,4.3c-4.7,2.3-8.9,5.3-12.6,9
		c-4.9,4.9-8.7,10.4-11.2,16.9c-1.4,3.7-2.4,7.6-2.9,11.5c-0.3,2.6-0.5,5.3-0.3,8c0,0.5,0.5,1.3-0.5,1.6c-0.4-0.5-0.8-0.9-1.2-1.4
		c-0.2-0.5-0.3-1.1-0.3-1.6c0.2-5.7,0.9-11.3,2.8-16.7c0.2-0.4,0.3-0.8,0.6-1.1c1.1,0.1,0.6-0.8,0.7-1.2c0.1-0.6,0.2-1.1,0.5-1.7
		c2.8-6.1,6.6-11.5,11.5-16.1c7-6.6,15.2-11,24.9-12.6c2.5-0.4,5.1-0.6,7.6-0.6c11.2,0.2,21.4,3.4,30.2,10.5
		c6.9,5.6,12.3,12.4,15.6,20.7C522.2,81.5,523,83.6,523.2,85.9z"/>
	<path class="st32" d="M430.4,75.1c1-1.7,2-3.3,3-5c1.7-2.9,3.8-5.5,6.1-7.9c4.5-4.9,9.7-8.5,15.7-11.3c4.4-2.1,9.1-3.4,13.9-4
		c2.3-0.3,4.6-0.5,6.9-0.5c6.5,0.1,12.8,1.3,18.8,3.8c5.5,2.3,10.5,5.4,15,9.5c4.3,3.9,7.8,8.4,10.7,13.5c0.7,1.3,1.3,2.7,2,4
		c0.2,0.3,0.2,0.8,0.7,0.9c0,1.3,0,2.5,0,3.8c-0.7,0-0.7-0.5-0.9-1c-2.8-8.2-7.7-14.9-14-20.6c-6.9-6.2-15-10.1-24.2-11.7
		c-2.9-0.5-5.9-0.8-8.8-0.7c-9.6,0.2-18.4,2.7-26.4,8.3c-7.2,5-12.8,11.4-16.8,19.2c-0.3,0.6-0.3,1.5-1.3,1.5
		C430.6,76.2,430.5,75.7,430.4,75.1z"/>
	<path class="st33" d="M432.3,113.8c0-0.4,0-0.8,0-1.2c0.2-0.7,0.4-0.1,0.5,0c0.4,0.7,0.7,1.5,1,2.2c1.9,4.8,4.4,9.1,7.7,13.1
		c4.8,5.7,10.5,10.1,17.4,13c5.1,2.1,10.4,3.2,16,3.3c6,0.2,11.8-0.7,17.4-2.9c5.4-2.1,10.2-5.2,14.4-9.3c3.2-3.1,5.9-6.5,8.2-10.3
		c0.9-1.5,1.6-3,2.3-4.6c1.7-3.5,2.7-7.2,3.4-10.9c0.7-3.6,0.9-7.3,0.7-11c-0.2-5.6-1.4-10.9-3.6-16.1c-1.6-3.8-3.7-7.2-6.3-10.3
		c-4.1-4.9-8.7-9-14.5-12c-5-2.6-10.2-4.3-15.8-4.9c-2.7-0.3-5.4-0.5-8.1-0.2c-2.4,0.3-4.9,0.4-7.2,1c-3.3,0.8-6.5,1.8-9.5,3.6
		c-2.9,1.1-5.3,2.9-7.7,4.8c-1.5,1.2-3.1,2.4-4.4,3.9c-5.1,5.4-9.1,11.6-11.3,18.8c-1.1,3.5-1.7,7.2-2,10.9c-0.2,3.2,0,6.3,0.2,9.4
		c0,0.4,0.2,0.8-0.4,0.9c-0.2-0.5-0.5-1-0.7-1.4c-0.2-3.3-0.3-6.6,0-9.9c0.3-4.5,1.3-8.9,2.9-13.1c1.7-4.5,4.1-8.7,7.3-12.5
		c1.3-1.5,2.5-3.2,4-4.6c4.4-4.1,9.2-7.5,14.8-9.8c3.7-1.5,7.6-2.4,11.7-2.8c5-0.5,9.9-0.3,14.8,0.6c5.5,1.1,10.6,3.3,15.4,6.3
		c3.4,2.2,6.5,4.8,9.2,7.8c4,4.2,7.1,9,9.2,14.5c1.2,3.1,2.2,6.3,2.6,9.5c0.4,3,0.7,6,0.5,9c-0.3,8.1-2.1,15.8-6.3,22.9
		c-2.6,4.5-5.9,8.5-9.7,12c-3.7,3.4-7.9,6.1-12.5,8.1c-3.4,1.5-7,2.5-10.8,3c-3.5,0.5-6.9,0.6-10.3,0.4c-5.3-0.3-10.5-1.5-15.3-3.8
		c-4-1.8-7.6-4.1-11-7c-3.5-3.1-6.6-6.5-9.1-10.4c-1.9-2.8-3.3-5.9-4.6-9C432.4,114.6,432.6,114.1,432.3,113.8z"/>
	<path class="st0" d="M405.8,89.9c-4.6-2.2-6.6-6-6-11.4c0.5-4.1,3.8-7.6,8.1-8.5c1-0.2,2-0.4,3-0.1c0.4,0.5,0.1,1,0,1.5
		c-2.2,5.5-3.7,11.1-4.5,17C406.3,88.8,406.3,89.4,405.8,89.9z"/>
	<path class="st34" d="M432.3,113.8c0.7,0.3,0.4,1.1,0.7,1.7c1.8,4.1,3.8,8.1,6.7,11.6c1.3,1.6,2.7,3.2,4.2,4.7
		c2.3,2.3,4.7,4.4,7.4,6.1c3.4,2,6.9,3.8,10.6,5c3.8,1.3,7.8,1.9,11.7,2.1c2.9,0.2,6,0,9-0.4c2.8-0.4,5.6-1,8.2-1.9
		c2.4-0.8,4.7-1.8,6.9-3.1c1.9-1.1,3.7-2.2,5.4-3.5c2.3-1.8,4.5-3.8,6.5-6c2.1-2.4,4.2-4.8,5.7-7.6c2-3.6,3.7-7.3,4.9-11.3
		c0.9-3.2,1.4-6.4,1.7-9.6c0.2-2.3,0.2-4.7,0-7.1c-0.2-2.8-0.4-5.6-1.1-8.3c-0.9-3.6-2.1-7.2-4-10.4c-1.7-2.9-3.4-5.7-5.7-8.2
		c-2.7-3-5.5-5.8-8.8-8.2c-1.6-1.2-3.3-2.4-5.2-3.2c-2.2-0.9-4.2-2.3-6.5-3c-3-0.9-6.1-1.8-9.2-2.1c-2.5-0.2-5.1-0.3-7.6-0.2
		c-4.3,0-8.4,0.8-12.3,2.1c-4.8,1.6-9.3,4-13.3,7.3c-2.5,2.1-5,4.2-7.1,6.8c-3,3.7-5.6,7.6-7.5,12.1c-1.2,2.8-1.9,5.7-2.7,8.6
		c-0.6,2.3-1,4.7-1,7c0,1.7-0.3,3.4,0,5.2c0.2,1.1,0,2.3,0.3,3.4c0,0.1-0.2,0.2-0.3,0.3c-0.2-0.2-0.3-0.4-0.3-0.6
		c0-1.6-0.2-3.3-0.1-4.9c0.1-2.8,0.1-5.6,0.7-8.3c0.9-4.7,2.3-9.4,4.5-13.7c1.9-3.7,4.3-7,7-10.2c3.2-3.8,7.1-6.8,11.2-9.4
		c4.7-2.9,9.8-4.6,15.2-5.5c3.9-0.7,7.8-0.6,11.7-0.4c4.6,0.2,9.1,1.5,13.4,3.2c4.7,1.9,8.9,4.6,12.7,7.9c4.8,4,8.6,8.9,11.5,14.4
		c2.2,4.1,3.6,8.5,4.3,13.1c0.5,3.1,0.8,6.2,0.7,9.3c-0.3,6.2-1.2,12.3-3.7,18.1c-2.3,5.3-5.4,10-9.3,14.2
		c-3.8,4.1-8.2,7.5-13.2,10.1c-4.4,2.3-9.1,3.6-14,4.3c-3.7,0.5-7.4,0.4-11.1,0.1c-5-0.4-9.7-1.8-14.3-3.7
		c-3.9-1.7-7.4-4.1-10.7-6.9c-3.6-3.1-6.6-6.5-9.2-10.5c-1.7-2.6-3.1-5.3-4.3-8.2c-0.1-0.3-0.2-0.6-0.5-0.8
		C432.3,114.7,432.3,114.2,432.3,113.8z"/>
	<path class="st35" d="M517.2,117.4c-0.8,2.5-2.2,4.7-3.6,6.8c-2.1,3.1-4.5,5.9-7.3,8.5c-3.6,3.4-7.7,6.2-12.3,8.1
		c-3.1,1.3-6.3,2.4-9.6,3c-1.9,0.3-3.8,0.6-5.8,0.7c-5.8,0.3-11.5-0.4-17-2.2c-1.1-0.3-2.1-0.8-3.1-1.2c-4.6-2-8.8-4.6-12.6-8
		c-2.9-2.6-5.4-5.5-7.6-8.7c-2.1-2.9-3.6-6.1-4.9-9.4c-0.3-0.8-0.7-1.7-1-2.5c0,0-0.1,0-0.1,0c0,0-0.1,0-0.1,0.1
		c-0.3-1.8-0.4-3.6-0.9-5.3c-0.3-2-0.5-4.1-0.6-6.1c-0.3-5.1,0.1-10.1,1.4-15c0.7-2.6,1.5-5.2,2.7-7.6c0.2-0.4,0.2-0.9,0.8-1
		c0.5,0.5,0.2,1,0,1.5c-1.8,3.8-2.8,7.9-3.5,12c-0.2,1-0.3,2.1-0.3,3.1c-0.2,4.8-0.1,9.5,0.9,14.2c1.1,5,3.1,9.6,5.6,14
		c0.2,0.3,0.5,0.5,0.7,0.8c2.4,3.9,5.5,7.1,8.9,10.1c3.2,2.8,6.9,4.9,10.7,6.7c3.2,1.4,6.6,2.3,10,2.9c7.2,1.2,14.3,0.7,21.2-1.5
		c3.5-1.1,6.8-2.6,9.8-4.7c1.8-1,3.4-2.4,5-3.8c3-2.5,5.5-5.4,7.8-8.6c0.4-0.5,0.8-0.8,1-1.4c0-0.1,0.1-0.2,0.2-0.3
		c1.7-2.6,3-5.3,4.1-8.2c0.2-0.5,0.2-1.2,1.1-1c0.2,0.8-0.3,1.5-0.5,2.1C517.7,116.1,517.5,116.7,517.2,117.4z"/>
	<path class="st29" d="M426.2,66.8c1.5-2.6,3.3-5,5.2-7.2c3.2-3.8,6.8-7.3,10.9-10.2c2.1-1.5,4.2-2.9,6.5-4.1
		c2.5-1.3,5.1-2.6,7.8-3.6c2.8-1,5.7-1.7,8.6-2.2c3.7-0.7,7.4-1.1,11.1-1c6.3,0.1,12.4,1.1,18.3,3.1c2.9,1,5.7,2.1,8.4,3.5
		c4,2.1,7.7,4.8,11.1,7.7c3.3,2.9,6.3,6.1,9,9.6c0,0.5,0,1,0,1.4c-0.5,0-0.6-0.4-0.9-0.7c-3.6-4.8-7.7-8.9-12.5-12.5
		c-0.4-0.3-0.8-0.6-1.2-0.7c-0.6-0.2-1.1-0.5-1.5-1c-0.3-0.5-0.9-0.8-1.4-1c-0.1-0.1-0.2-0.1-0.3-0.2c-7.1-4.2-14.7-6.9-22.9-7.7
		c-10.2-1.1-20.1,0.2-29.5,4.5c-5.2,2.4-9.9,5.4-14.1,9.2c-0.1,0.1-0.2,0.2-0.3,0.2c-1.8,1.4-3.4,3.1-4.9,4.9
		c-0.1,0.1-0.1,0.2-0.2,0.3c-1.6,1.6-3,3.4-4.2,5.3c-0.4,0.8-1,1.4-1.5,2.2c-0.3,0.4-0.5,0.9-0.9,1.1
		C426.7,67.4,426.5,67.1,426.2,66.8z"/>
	<path class="st36" d="M423.1,80.4c1.8,0,3.5,0,5.3,0c0.4,0.5,0.2,1,0.1,1.6c-0.8,3.3-1.7,6.6-2,10c-0.1,1.5-0.3,3-0.4,4.5
		c0,0.7,0,1.4-0.8,1.7c-1.5-1.1-3.1-2-4.8-2.9c-0.6-1.1-0.1-2.2,0-3.3c0.3-3.5,0.9-6.9,2-10.2C422.6,81.3,422.7,80.8,423.1,80.4z"/>
	<path class="st37" d="M411.6,102.3c1.5,0.5,2.8,1.2,4.1,2c0.6,1.8,0.5,3.8,0.9,5.7c0.9,3.5,1.6,7.1,3,10.5c0.2,0.5,0.4,1,0.3,1.5
		c-0.7,1.2-1.7,2.1-2.9,2.9c-1.1-1.5-1.6-3.2-2.2-4.9c-1-3.1-1.8-6.4-2.5-9.6c-0.4-1.7-0.6-3.5-0.7-5.3
		C411.7,104.1,411.5,103.2,411.6,102.3z"/>
	<path class="st20" d="M427.7,66.5c0.3-0.8,0.9-1.5,1.4-2.2c1.3-2,2.8-3.8,4.3-5.5v0c1.6-1.8,3.3-3.5,5-5v0c2.5-2.2,5.2-4.2,8-6
		c6.8-4.2,14.1-6.8,22.1-7.8c7.7-1,15.4-0.4,22.9,1.7c5,1.4,9.8,3.5,14.3,6.1v0c0.5,0.3,1,0.6,1.4,1c0.4,0.4,0.9,0.7,1.4,1
		c4,2.7,7.6,6,10.7,9.6c1.4,1.6,2.8,3.2,3.9,5c0,0.2,0,0.5,0,0.7c-1.1-0.7-1.7-2-2.5-3c-2.7-3.3-5.7-6.4-9-9.2
		c-3.6-3-7.5-5.4-11.7-7.3c-5.3-2.4-10.8-4.1-16.7-4.8c-3.3-0.4-6.6-0.5-9.9-0.4c-4.4,0.2-8.7,0.8-12.9,2c-3.5,1-6.8,2.3-9.9,3.9
		c-4.6,2.5-8.8,5.5-12.7,9.1c-3,2.8-5.5,5.9-8,9.1c-0.9,1.2-1.4,2.6-2.4,3.7c-0.1-0.1-0.1-0.2-0.2-0.3
		C426.9,67.3,427.5,67,427.7,66.5z"/>
	<path class="st38" d="M430.8,76.8c0.5-0.2,0.6-0.6,0.8-1c2.8-5.8,6.7-10.9,11.4-15.3c6.9-6.4,14.9-10.6,24.2-12.2
		c2.7-0.5,5.5-0.8,8.3-0.7c11,0.1,21.2,3.2,30,9.9c6.5,5,11.8,11.2,15.4,18.7c0.7,1.5,1.4,3,1.8,4.5c0.1,0.4,0.1,0.9,0.6,1.1
		c0,0.6,0,1.3,0,1.9c-0.7,0-0.6-0.6-0.7-0.9c-2.1-7-5.8-13.1-10.7-18.5c-6.3-6.8-13.8-11.6-22.8-14.2c-3.8-1.1-7.7-1.6-11.6-1.7
		c-4.3-0.1-8.6,0.2-12.8,1.2c-6.8,1.6-12.8,4.7-18.2,9c-4.9,3.9-8.9,8.6-12.1,13.9c-0.9,1.4-1.5,3-2.3,4.5c-0.2,0.3-0.3,0.7-0.7,0.8
		c-0.1,0-0.2,0-0.3-0.1C430.8,77.4,430.8,77.1,430.8,76.8z"/>
	<path class="st8" d="M428.4,101.3c0.4-0.3,0.3-0.7,0.3-1.1c-0.4-5.9,0.5-11.7,2.2-17.4c0.9-3.1,2.2-6,3.8-8.8
		c2.7-4.7,6.1-8.8,10.1-12.5c2.9-2.7,6.2-4.9,9.7-6.8c3.6-1.9,7.4-3.2,11.4-4.1c2.4-0.5,4.9-0.8,7.4-0.9c5.5-0.3,10.9,0.4,16.2,1.9
		c2.1,0.6,4.1,1.5,6,2.4c1.7,0.8,3.4,1.6,5,2.6c2.3,1.5,4.5,3.2,6.6,4.9c2.9,2.4,5.2,5.2,7.4,8.2c1.9,2.6,3.6,5.3,4.8,8.3
		c0.5,1.3,0.9,2.7,1.6,4c0.2,0.4,0.3,0.9,0.3,1.4c0.2,0.2,0.2,0.5,0,0.7c-0.7-1.8-1.4-3.6-2.1-5.3c-1.5-3.8-3.6-7.2-6.1-10.3
		c-3.5-4.5-7.7-8.4-12.6-11.4c-5.4-3.4-11.3-5.6-17.6-6.5c-3.6-0.6-7.2-0.6-10.8-0.4c-7.2,0.4-13.9,2.6-20,6.4
		c-3.2,2-6.2,4.3-8.8,6.9c-5.8,5.9-10.1,12.8-12.4,20.8c-1.5,5.3-2,10.7-1.8,16.2c0,0.5,0.2,1-0.2,1.5
		C428.7,101.8,428.5,101.5,428.4,101.3z"/>
	<path class="st6" d="M417.3,72.1c1.2,0.8,2,2,2.6,3.3c-2.2,4.9-3.3,10-3.9,15.2c-0.1,0.9,0,1.9-0.6,2.8c-1.3-0.3-2.6-0.7-3.9-1.2
		c0.3-0.5,0.4-1,0.5-1.6c0.6-5.8,2.1-11.4,4.2-16.8C416.5,73.1,416.5,72.3,417.3,72.1z"/>
	<path class="st38" d="M431,77.8c0.6-0.3,0.7-0.9,0.9-1.4c2.1-4.6,5-8.6,8.3-12.3c3.8-4.2,8.2-7.7,13.1-10.4
		c4.4-2.4,9.2-4.1,14.1-4.9c4.3-0.7,8.5-0.6,12.9-0.3c7,0.5,13.4,2.9,19.4,6.2c2.8,1.5,5.4,3.5,7.9,5.6c3.4,2.9,6.3,6.2,8.8,9.9
		c2.6,3.8,4.7,7.9,6,12.4c0.1,0.4,0.1,1,0.6,1.2c0,0.7,0,1.4,0,2.1c-1.1-3.7-2.4-7.4-4.2-10.9c-1.7-3.3-3.8-6.2-6.2-9
		c-3.3-3.9-7-7.1-11.3-9.9c-5.2-3.4-10.8-5.5-16.8-6.6c-2.5-0.5-5-0.6-7.5-0.8c-6.6-0.3-13,0.8-19.1,3.2c-4.4,1.8-8.3,4.3-12,7.3
		c-4.7,3.8-8.5,8.3-11.6,13.4c-1.3,2.1-2.3,4.4-3.5,6.7c-0.1-0.1-0.1-0.1,0-0.2C430.9,78.6,430.9,78.2,431,77.8z"/>
	<path class="st39" d="M405.8,89.9c0.5-3.9,1.2-7.8,2.3-11.6c0.8-2.8,2-5.5,2.8-8.4c0.7-0.1,1.5-0.1,2.2,0.2c0.2,0.5,0,0.9-0.2,1.4
		c-2.5,5.9-4,12.1-4.8,18.5c0,0.3-0.1,0.6-0.3,0.9C407,90.6,406.4,90.3,405.8,89.9z"/>
	<path class="st40" d="M504,137.3c0.1,0,0.2,0,0.2,0c-1.3,1.4-3,2.2-4.6,3.2c-4.4,2.7-9.2,4.5-14.3,5.5c-4.2,0.8-8.5,1.1-12.8,0.8
		c-4.1-0.3-8.1-0.9-11.9-2.3c-5.7-2.1-10.9-4.9-15.5-8.9c-4.9-4.3-8.8-9.3-11.8-15c-0.4-0.8-0.5-1.9-1.3-2.5c0-0.2,0-0.5,0.1-0.7
		c0.7,0.4,0.9,1.2,1.2,2c0.7,1.5,1.6,2.9,2.4,4.4c2.5,4.2,5.8,7.8,9.4,11.1c2.5,2.3,5.3,4,8.2,5.7c2.4,1.4,5,2.3,7.5,3.4
		c2.6,1.1,5.3,1.6,8.1,2c3.1,0.4,6.2,0.7,9.3,0.5c4.4-0.3,8.6-0.9,12.8-2.4c4.6-1.6,8.8-3.8,12.7-6.6
		C503.7,137.3,503.9,137.3,504,137.3z"/>
	<path class="st41" d="M406.4,100.2c0.3,0.1,0.6,0.2,0.9,0.3c0.5,0.3,0.5,0.7,0.6,1.2c0.2,3.7,0.6,7.3,1.4,10.9
		c0.9,4.2,2.2,8.3,3.8,12.3c0.2,0.5,0.5,0.9,0.3,1.5c-0.5,0.3-1.1,0.4-1.7,0.4c-2.4-5.6-4.2-11.5-5.1-17.6c-0.4-2.5-0.7-5-0.7-7.5
		C405.8,101.2,405.7,100.6,406.4,100.2z"/>
	<path class="st28" d="M420.2,62.4c-0.4-0.1-0.8-0.2-1.2-0.5c0-0.1,0.1-0.1,0.1-0.2c1.1-0.9,1.7-2.3,2.5-3.5
		c4.6-6.3,10-11.7,16.3-16.2c3.9-2.8,7.9-5.2,12.4-6.9c0.3-0.1,0.5-0.3,0.7-0.4c3.2-1.3,6.5-2.3,9.8-3.1c0.6-0.1,1.2-0.2,1.7,0.2
		c0.1,0.7-0.5,0.5-0.8,0.6c-4.2,0.8-8.1,2.4-12,4c-0.3,0.1-0.5,0.2-0.7,0.4c-0.5,0.5-1,0.9-1.6,1.2c-5.5,2.6-10.4,6-14.9,10.1
		c-4.5,4-8.4,8.5-11.6,13.6C420.8,62,420.6,62.3,420.2,62.4z"/>
	<path class="st42" d="M411.6,102.3c0.3,0.5,0.5,1,0.5,1.6c0,3.9,0.9,7.7,1.9,11.5c0.8,3,1.7,6,3,8.8c0.1,0.2,0.1,0.4,0.1,0.6
		c-0.3,0.4-0.7,0.6-1.2,0.7c-0.4-0.2-0.5-0.6-0.7-0.9c-2.3-5.8-4.1-11.8-4.7-18.1c-0.1-1.1-0.3-2.2-0.4-3.3c0-0.5-0.2-1,0.2-1.4
		C410.8,101.8,411.2,102,411.6,102.3z"/>
	<path class="st3" d="M406.4,100.2c-0.5,1.1-0.3,2.2-0.2,3.3c0.6,7.6,2.4,15,5.3,22.1c0.2,0.4,0.4,0.8,0.2,1.2c-0.3,0-0.6,0-1,0
		c-1.1-3.2-2.4-6.4-3.3-9.7c-0.9-3.4-1.6-6.9-2-10.4c-0.3-2.4-0.5-4.8-0.5-7.2C405.4,99.8,405.9,100,406.4,100.2z"/>
	<path class="st22" d="M420.2,62.4c1.6-2.8,3.5-5.4,5.6-7.8c3.7-4.3,7.7-8.2,12.4-11.4c2.4-1.7,4.9-3.1,7.4-4.6
		c0.6-0.4,1.4-0.6,2.1-0.9c0.4-0.2,0.9-0.4,1.1-0.9c1.3-0.5,2.5-1,3.7-1.5c0.5-0.2,1.1-0.7,1.8-0.1c-0.1,0.2-0.2,0.3-0.2,0.5
		c-3,1.1-5.9,2.5-8.6,4c-2.4,1.3-4.7,2.9-7,4.5c-2.8,2-5.3,4.2-7.7,6.5c-2.1,2-4.1,4.2-5.9,6.6c-1.4,1.8-2.7,3.7-4.1,5.6
		C420.5,62.6,420.4,62.6,420.2,62.4z"/>
	<path class="st9" d="M425.3,98.2c0.4-0.5,0.5-1,0.5-1.7c0.2-4.4,0.7-8.7,2-12.9c0.3-1,0.7-2.1,0.6-3.2c0.6,0,1.3,0,1.9,0
		c-0.5,2.1-1.3,4.1-1.8,6.3c-0.6,2.9-1.1,5.8-1.2,8.8c0,1.5-0.2,2.9-0.2,4.4C426.5,99.4,425.9,98.8,425.3,98.2z"/>
	<path class="st43" d="M435.6,77.5c-1.6,2.4-2.3,5.1-3.1,7.8c-1.5,5.1-1.9,10.2-1.7,15.5c0.1,1.8,0.1,3.6,0.6,5.3
		c0.1,0.4,0.2,0.8-0.1,1.1c-0.2-0.7-0.5-1.4-0.7-2.2c0.3-1.1,0-2.3-0.1-3.4c-0.2-2.4-0.1-4.7,0-7.1c0.1-2.5,0.5-4.9,1-7.3
		c1.1-4.8,2.8-9.4,5.4-13.5c2.9-4.6,6.2-8.7,10.5-12.1c2.2-1.8,4.5-3.4,6.9-4.9c0.5-0.3,1.1-0.5,1.7-0.6c0.1,0.7-0.5,0.8-0.8,1.2
		c-0.7,0.5-1.3,1.1-2.2,1.2c-1.7,0.7-3.2,2-4.6,3.2c-4,3.2-7.3,7-10.2,11.3c-0.2,0.2-0.3,0.5-0.4,0.7c0,0.1-0.1,0.2-0.2,0.3
		c-0.5,0.8-1,1.7-1.4,2.5C436.1,76.9,435.9,77.3,435.6,77.5z"/>
	<path class="st26" d="M410.4,101.8c0.4,4.6,0.9,9.2,2.1,13.7c0.9,3.4,2.1,6.7,3.4,10c-0.3,0.3-0.6,0.4-1,0.5
		c-1-1.1-1.3-2.6-1.8-3.9c-2.2-5.8-3.5-11.8-4-17.9c-0.1-0.9-0.2-1.9,0-2.8C409.6,101.4,410,101.5,410.4,101.8z"/>
	<path class="st12" d="M413.3,126.5c-2.1-4.9-3.7-10-4.7-15.2c-0.6-3.1-1-6.3-1.1-9.4c0-0.4,0-0.9-0.2-1.3c0.4,0.1,0.8,0.2,1.2,0.5
		c0.6,1.2,0.4,2.5,0.5,3.7c0.6,6.6,2.1,13,4.7,19.2c0.3,0.7,0.7,1.4,0.6,2.3C414,126.5,413.6,126.6,413.3,126.5z"/>
	<path class="st12" d="M407.7,90.8c0.2-4,1.1-7.8,2.1-11.7c0.8-3.1,2-6.1,3.2-9c0.4,0,0.7,0,1,0.2c0.4,0.5,0.1,0.9-0.1,1.3
		c-2.2,5.8-4,11.7-4.7,17.8c-0.1,0.6,0.2,1.6-1,1.5C408.1,90.9,407.9,90.8,407.7,90.8z"/>
	<path class="st11" d="M415.4,93.4c0.2-4.4,1.1-8.6,2.2-12.8c0.4-1.5,1.1-3,1.6-4.5c0.1-0.4,0.3-0.7,0.7-0.7
		c-0.1,0.6,0.6,0.9,0.5,1.4c-1.2,3.3-1.9,6.8-2.7,10.3c-0.4,1.8-0.6,3.7-0.7,5.6c0,0.4,0,0.9-0.4,1.2
		C416.2,93.7,415.8,93.7,415.4,93.4z"/>
	<path class="st23" d="M414.2,126.2c-3.5-8-5.5-16.4-5.8-25.2c0.3,0,0.5,0.1,0.7,0.3c0.5,1.2,0.3,2.4,0.4,3.6
		c0.5,5.5,1.7,10.8,3.5,16c0.6,1.7,1.2,3.3,1.8,5C414.8,126.1,414.5,126.3,414.2,126.2z"/>
	<path class="st9" d="M423.1,80.4c-1.2,4.3-2.2,8.6-2.4,13.1c0,0.6-0.3,1.2-0.2,1.8c-0.5-0.2-1-0.4-1.5-0.6
		c-0.4-0.9-0.3-1.8-0.2-2.7c0.3-2.4,0.7-4.9,1.2-7.3c0.2-1.2,0.7-2.3,1-3.5c0.1-0.4,0.4-0.6,0.7-0.7
		C422.2,80.4,422.6,80.4,423.1,80.4z"/>
	<path class="st33" d="M420,121.9c-1.2-2.5-2.1-5.1-2.7-7.8c-0.4-1.7-0.9-3.4-1.2-5.1c-0.2-1.5-0.7-3.1-0.4-4.7
		c0.4,0.2,0.9,0.4,1.2,0.8c0.9,1.3,0.6,2.9,0.9,4.4c0.8,3.7,1.8,7.4,3.1,11C420.7,121,420.4,121.5,420,121.9z"/>
	<path class="st44" d="M417.3,72.1c-1,1.7-1.4,3.6-2.1,5.4c-1.2,3.3-1.8,6.7-2.5,10.1c-0.3,1.2-0.3,2.4-0.4,3.6c0,0.5-0.2,0.9-0.8,1
		c-0.3,0-0.5,0-0.7-0.2c0.4-2.9,0.6-5.8,1.4-8.6c1-3.8,2-7.5,3.6-11.1c0.1-0.3,0.2-0.7,0.6-0.9C416.8,71.5,417.1,71.8,417.3,72.1z"
		/>
	<path class="st45" d="M451.9,153.4c0.2,0.3,0.5,0.6,0.7,1c-1.4-0.2-2.4-1.2-3.7-1.7c-0.5-0.2-0.9-0.5-1.3-0.7c-0.9-0.7-2-1-2.9-1.7
		c-0.5-0.2-1-0.5-1.4-1c-0.5-0.4-0.9-0.7-1.4-1c-0.7-0.4-1.4-0.8-1.9-1.4c-0.3-0.2-0.6-0.5-1-0.7c-0.4-0.3-0.7-0.7-1.2-1
		c-0.1-0.1-0.2-0.2-0.2-0.2c-0.5-0.4-0.9-0.9-1.4-1.2c-0.4-0.2-0.7-0.5-1-1c-0.7-0.8-1.5-1.4-2.2-2.2c-0.4-0.2-0.7-0.6-1-1
		c-0.3-0.6-0.8-1-1.2-1.4c-0.2-0.1-0.4-0.3-0.5-0.5c-0.3-0.4-0.7-0.8-1-1.2c-0.2-0.3-0.5-0.6-0.7-1c-0.5-0.3-0.6-0.8-1-1.2
		c-0.7-1.2-1.7-2.3-2.4-3.6c-0.1-0.1-0.2-0.2-0.3-0.3c0.2-0.1,0.3-0.3,0.5-0.4c2.7,4.1,5.6,8,9.1,11.4c3.9,3.8,8.2,7.1,13,9.7
		C449,151.9,450.5,152.5,451.9,153.4z"/>
	<path class="st46" d="M416.6,93.8c0.2-1.7,0.3-3.4,0.6-5.1c0.2-1.1,0.3-2.1,0.6-3.1c0.6-2.6,1-5.2,2-7.7c0.2-0.4,0.1-0.9,0.6-1.1
		c0.2,0.6,0.5,1.1,0.4,1.7c-0.2,1.7-0.7,3.3-1.1,5c-0.9,3.4-1.3,6.9-1.6,10.3c0,0.2,0,0.3-0.1,0.5C417.6,94.1,417.1,94,416.6,93.8z"
		/>
	<path class="st47" d="M408.2,91c0.8-0.2,0.6-1,0.7-1.5c0.5-4.4,1.4-8.7,2.9-12.9c0.8-2.1,1.4-4.2,2.2-6.3c0.4-0.1,0.6,0.2,1,0.3
		c0.3,0.5,0,1-0.2,1.5c-2.4,5.4-3.7,11-4.5,16.8c-0.1,0.6-0.2,1.3-0.3,1.9c0,0.3,0,0.7-0.5,0.6C409,91.4,408.6,91.3,408.2,91z"/>
	<path class="st22" d="M416.4,71.4c-0.9,2.5-1.9,5-2.7,7.5c-1,3.1-1.7,6.3-2.1,9.6c-0.1,0.9-0.3,1.9-0.2,2.8c0,0.4-0.1,0.6-0.5,0.7
		c-0.3,0-0.5,0-0.7-0.2c0-2.1,0.4-4.1,0.7-6.1c0.8-4.5,2.1-8.8,3.8-13c0.2-0.6,0.4-1.2,1-1.5C415.9,71.1,416.2,71.2,416.4,71.4z"/>
	<path class="st48" d="M418.1,94.3c-0.7-1.3-0.1-2.5,0.1-3.8c0.4-4,1.3-7.8,2.6-11.6c0-0.1,0.1-0.3,0.2-0.4c0.4,0.6-0.2,1.6,0.8,1.9
		c-0.7,1.3-1,2.6-1.3,4c-0.2,1-0.4,2.1-0.6,3.1c-0.2,1.2-0.2,2.4-0.4,3.5c-0.3,1.2,0,2.4-0.4,3.6C418.7,94.5,418.4,94.4,418.1,94.3z
		"/>
	<path class="st49" d="M415.7,71c-2.2,4.8-3.6,9.9-4.6,15.1c-0.3,1.9-0.3,3.8-1,5.6c-0.3,0-0.5,0-0.7-0.3c0.5-1.3,0.5-2.8,0.7-4.2
		c0.8-5,2.1-9.8,3.9-14.5c0.3-0.7,0.8-1.4,0.9-2.2C415.2,70.7,415.5,70.8,415.7,71z"/>
	<path class="st8" d="M420.9,120.5c-1.1-0.8-1.1-2.2-1.5-3.3c-0.7-1.8-1.1-3.8-1.5-5.7c-0.5-2.1-0.8-4.3-1-6.4
		c0.4,0.3,0.9,0.5,1.2,0.9c0.3,0.5,0.4,1.1,0.5,1.7c0.5,3.3,1.3,6.6,2.5,9.7c0.2,0.6,0.2,1.2,0.3,1.9
		C421.3,119.7,420.8,120,420.9,120.5z"/>
	<path class="st17" d="M421.4,119.3c-1.2-2.7-2-5.6-2.6-8.5c-0.3-1.6-0.8-3.1-0.7-4.8c0.5,0.3,1,0.6,1.2,1.2c0.7,2.2,1,4.6,1.7,6.8
		c0.3,1.1,0.7,2.2,0.9,3.3C421.9,118,421.6,118.7,421.4,119.3z"/>
	<path class="st50" d="M421.9,117.3c-1.3-2.5-1.7-5.3-2.3-8c-0.2-0.7-0.3-1.4-0.2-2.1c2.3,2.4,2.8,5.4,2.8,8.6
		C422.1,116.3,421.9,116.8,421.9,117.3z"/>
	<path class="st51" d="M419,61.9c-0.2,0-0.4,0-0.6-0.2c0.2-0.3,0.3-0.7,0.6-1c1.8-2.7,3.7-5.3,5.8-7.7c0.5-0.6,1-1.5,1.9-1.6
		c0.3,0.4,0,0.7-0.2,0.9c-2.4,2.7-4.7,5.6-6.6,8.7C419.6,61.3,419.3,61.6,419,61.9L419,61.9z"/>
	<path class="st52" d="M427.7,66.5c-0.2,0.5-0.3,1-0.5,1.5c-0.1-0.1-0.1-0.2-0.2-0.3C427,67.2,427.2,66.7,427.7,66.5z"/>
	<path class="st53" d="M419,60.7c0,0.4-0.2,0.8-0.6,1c0,0-0.1,0-0.1,0l-0.1-0.1C418.5,61.3,418.6,60.9,419,60.7z"/>
	<path class="st29" d="M431,77.8c0,0.4,0,0.8,0,1.2c-0.2-0.4-0.2-0.8-0.2-1.2C430.9,77.8,431,77.8,431,77.8z"/>
	<path class="st52" d="M523.2,64.3c-2.4-3.1-4.8-6.1-7.7-8.8c-2-1.9-4.2-3.7-6.4-5.3c-0.2-0.1-0.3-0.3-0.5-0.5
		c1.7,0.6,2.9,1.9,4.3,3c3.9,3.3,7.4,7,10.3,11.2C523.2,64,523.2,64.1,523.2,64.3z"/>
	<path class="st16" d="M521.3,84.2c0-0.2,0-0.5,0-0.7c1,1.5,1,3.2,1.4,4.9c0.2,0.7,0.3,1.4,0.5,2.1c0,1.4,0,2.7,0,4.1
		c0,0-0.1,0-0.1,0c-0.1-0.6-0.2-1.3-0.3-1.9c0.2-0.6-0.1-1.1-0.2-1.7c0-0.2,0-0.3,0-0.5c0-0.7-0.1-1.4-0.2-2.2
		c-0.3-0.4,0.1-0.8-0.2-1.2C521.7,86.2,521.4,85.2,521.3,84.2z"/>
	<path class="st8" d="M522.2,88.3c0.3,0.7,0.5,1.4,0.2,2.2C522.2,89.8,522.2,89.1,522.2,88.3z"/>
	<path class="st8" d="M522.5,91c0.3,0.5,0.8,1,0.2,1.7C522.6,92.1,522.4,91.5,522.5,91z"/>
	<path class="st8" d="M522,87.1c0.4,0.3,0.2,0.8,0.2,1.2C521.8,88,522.1,87.5,522,87.1z"/>
	<path class="st26" d="M532.6,63.1c0.8,0.9,1.6,1.8,1.7,3.1c-0.6-0.8-1.1-1.6-1.7-2.4C532.6,63.6,532.6,63.4,532.6,63.1z"/>
	<path class="st51" d="M474.7,29.5c0,0.2,0,0.3,0,0.5c-0.4,0.2-0.7,0-1.1,0.1c-0.7,0-1.4-0.1-2,0.2c-1.3,0.4-2.6,0.2-3.9,0.4
		c-0.6-0.3-1.2,0-1.8,0.2c-3.9,0.5-7.7,1.3-11.4,2.6c-0.5,0-0.9,0.2-1.3,0.5c-0.6,0.3-1.3,0.4-1.9,0.7c-0.5,0-0.8,0.2-1.2,0.4
		c-0.2,0.1-0.4,0.2-0.6,0.3c-0.4,0.1-0.7,0.2-1,0.4c-0.1,0.1-0.2,0.1-0.3,0.1c-0.3,0.2-0.7,0.3-1,0.5c-3.7,1.9-7.3,4-10.6,6.5
		c-1.6,1.2-3.3,2.5-4.8,3.9c-0.3,0.3-0.5,0.6-1,0.5c0-1.1,1-1.4,1.6-2c1.8-1.5,3.6-3,5.5-4.3c0.9-0.7,1.9-1.3,2.9-1.9
		c0.4-0.2,0.8-0.5,1.2-0.7c0.4-0.3,0.8-0.4,1.2-0.7c0.2-0.1,0.3-0.2,0.5-0.2c1.9-1,3.8-2,5.8-2.9c0.6-0.2,1.1-0.5,1.7-0.7
		c5.4-2,10.9-3.5,16.7-4.2c1.9-0.2,3.8-0.3,5.7-0.4C474,29.3,474.4,29.2,474.7,29.5z"/>
	<path class="st53" d="M474.7,29.5c-7.6-0.1-14.9,1.4-22,3.9c-0.5,0.2-1,0.4-1.5,0.4c2.3-1.2,4.7-1.8,7.2-2.5
		c4.3-1.2,8.8-1.8,13.3-2.1c6.5-0.5,12.8,0.3,19.2,1.5c0.1,0.1,0.1,0.1,0.1,0.2c0,0.1,0,0.1-0.1,0.1c-1.7-0.3-3.3-0.5-5-0.8
		c-2.2-0.3-4.3-0.6-6.6-0.6C477.7,29.7,476.2,29.6,474.7,29.5z"/>
	<path class="st12" d="M534,62.2c-1.2-1.2-1.9-2.7-2.9-4c-1.7-2.3-3.4-4.5-5.4-6.5c-0.2-0.2-0.4-0.4-0.4-0.7
		c1.3,0.3,1.7,1.6,2.5,2.5c2.2,2.5,4.1,5.2,5.9,7.9C533.9,61.6,534,61.8,534,62.2z"/>
	<path class="st12" d="M522.2,47.8c-1.2-0.3-1.7-1.4-2.6-2.1c-2.7-2.3-5.5-4.3-8.4-6.2c-0.1-0.1-0.2-0.2-0.3-0.4
		c1.4,0.3,2.5,1.4,3.6,2.1c2.4,1.6,4.5,3.4,6.7,5.3C521.8,46.9,522,47.3,522.2,47.8z"/>
	<path class="st12" d="M490.8,31c0-0.1,0-0.2,0-0.2c2.9,0.8,5.8,1.5,8.6,2.6c1.5,0.6,3.1,0.8,4.4,2c-1.1-0.1-2.1-0.8-3.1-1.2
		c-3.1-1.1-6.2-2.1-9.3-2.9C491.1,31.2,491,31,490.8,31z"/>
	<path class="st53" d="M426.7,51.4c-2.6,2.3-4.5,5.1-6.5,7.9c-0.4,0.5-0.6,1.2-1.2,1.5c1-2,2.3-3.7,3.7-5.5c1.2-1.5,2.4-3.2,4-4.4
		c0,0,0.1,0.1,0.1,0.1c0,0.1,0,0.2,0,0.3C426.8,51.3,426.8,51.3,426.7,51.4z"/>
	<path class="st53" d="M438,41c-1.7,1.6-3.6,3-5.5,4.3C434.1,43.6,435.9,42.2,438,41z"/>
	<path class="st53" d="M449.5,34.6c-1.8,1.1-3.8,2.1-5.8,2.9C445.5,36.2,447.4,35.2,449.5,34.6z"/>
	<path class="st53" d="M426.7,50.9c0.9-1.5,2.1-2.7,3.6-3.6c0,0.1,0,0.1,0.1,0.2c-0.1,0.6-0.7,0.9-1.1,1.4c-0.3,0.3-0.7,0.7-1,1
		C427.8,50.2,427.5,51,426.7,50.9L426.7,50.9z"/>
	<path class="st12" d="M525.1,50.6c-1-0.8-1.9-1.7-2.6-2.6C523.6,48.6,524.5,49.5,525.1,50.6z"/>
	<path class="st12" d="M507.6,37.2c-1.2-0.4-2.3-1-3.4-1.7C505.5,35.8,506.6,36.3,507.6,37.2z"/>
	<path class="st53" d="M440.9,39.1c-0.8,0.8-1.8,1.5-2.9,1.9C438.8,40.1,439.7,39.5,440.9,39.1z"/>
	<path class="st53" d="M432.5,45.4c-0.6,0.6-1.1,1.3-1.7,1.9c0,0-0.1,0.1-0.1,0.1c-0.1,0-0.3,0-0.4-0.1c0,0,0,0,0,0
		C431,46.6,431.5,45.7,432.5,45.4z"/>
	<path class="st12" d="M509.8,38.4c-0.6-0.2-1.3-0.4-1.7-1C508.8,37.4,509.4,37.7,509.8,38.4z"/>
	<path class="st53" d="M451.2,33.8c-0.5,0.4-1,0.7-1.7,0.7C450,34.1,450.5,33.8,451.2,33.8z"/>
	<path class="st12" d="M511,39.1c-0.5-0.1-0.9-0.2-1.2-0.7C510.3,38.3,510.7,38.6,511,39.1z"/>
	<path class="st53" d="M443.3,37.7c-0.3,0.5-0.7,0.6-1.2,0.7C442.3,37.9,442.8,37.8,443.3,37.7z"/>
	<path class="st45" d="M452.9,154.3c2,0.4,3.9,1.2,5.8,1.8c1,0.3,2,0.4,2.9,1c-1.3,0.2-2.4-0.6-3.7-0.8c-1.5-0.3-2.8-1-4.3-1.5
		C453.3,154.8,453,154.6,452.9,154.3z"/>
	<path class="st45" d="M472.3,158.9c0.4-0.4,0.9-0.2,1.3-0.2c1.7,0,3.3,0,5,0c0.4,0,0.8-0.1,1.1,0.2c-2,0.1-3.9,0.6-5.9,0
		C473.3,158.7,472.8,159.4,472.3,158.9z"/>
	<path class="st11" d="M433,140.6c0.9,0.5,1.8,1.1,2.2,2.2C434,142.5,433.4,141.7,433,140.6z"/>
	<path class="st45" d="M461.5,157.2c1.4,0.1,2.8,0.1,4.1,1C464.2,157.9,462.8,157.9,461.5,157.2z"/>
	<path class="st11" d="M425.3,130.8c0.9,1.1,1.9,2.2,2.4,3.6C426.7,133.3,425.8,132.2,425.3,130.8z"/>
	<path class="st11" d="M444.7,150.2c1,0.5,2.2,0.7,2.9,1.7C446.5,151.6,445.5,151.1,444.7,150.2z"/>
	<path class="st45" d="M469.4,158.6c0.8-0.5,1.5-0.3,2.2,0.2C470.8,159.2,470.1,158.9,469.4,158.6z"/>
	<path class="st11" d="M430.8,138.2c0.8,0.2,1.2,0.6,1.2,1.4C431.5,139.3,430.9,139,430.8,138.2z"/>
	<path class="st45" d="M467.5,158.4c0.7-0.6,1.1,0.1,1.7,0.2C468.6,159.1,468.1,158.6,467.5,158.4z"/>
	<path class="st11" d="M436.1,143.8c0.7,0.2,1.2,0.5,1.4,1.2C436.8,144.8,436.5,144.3,436.1,143.8z"/>
	<path class="st11" d="M441.8,148.3c0.7-0.1,1.1,0.4,1.4,1C442.7,149.1,442.2,148.8,441.8,148.3z"/>
	<path class="st11" d="M437.8,145.2c0.6,0,1,0.4,1.2,1C438.4,146.1,438.1,145.6,437.8,145.2z"/>
	<path class="st11" d="M429.4,136.6c0.4,0.3,0.9,0.6,1,1.2C429.9,137.5,429.4,137.2,429.4,136.6z"/>
	<path class="st45" d="M466.1,158.2c0.5-0.5,0.7-0.1,1,0.2C466.7,158.4,466.3,158.5,466.1,158.2z"/>
	<path class="st11" d="M428.6,135.6c0.4,0.2,0.7,0.5,0.7,1C429,136.3,428.7,136.1,428.6,135.6z"/>
	<path class="st11" d="M439,146.2c0.5,0,0.7,0.3,1,0.7C439.4,146.9,439.2,146.5,439,146.2z"/>
	<path class="st54" d="M467.5,30.5c1.3-0.4,2.8,0,4.1-0.5c0.7-0.3,1.5,0.1,2.2-0.2c0.3,0,0.7,0.1,1,0.2c2.7-0.3,5.5,0.1,8.2,0.5
		c0.4-0.2,0.8-0.2,1.2,0c3.2,0.5,6.4,1,9.6,1.9c0.6,0.2,1.3,0.3,2,0.5c0.9,0.3,1.8,0.4,2.6,1c2.2,0.9,4.3,1.8,6.5,2.6
		c0.4,0.4,0.9,0.5,1.4,0.7c2.8,1.4,5.3,3.2,8,4.9c2.3,1.4,4.3,3.2,6.3,5c2.7,2.5,5.5,5.1,7.8,8c2.2,2.8,4.2,5.9,6.1,9
		c0.6,0.9,0.9,2,1.6,2.9c0.2,0.4,0.3,0.8,0.5,1.2c0.2,0.4,0.3,0.8,0.5,1.2c-0.1,0-0.2,0-0.2,0c-1.2-1.6-1.7-3.5-2.7-5.1
		c-1.9-3.1-3.8-6-6-8.8c-2.1-2.6-4.4-5-6.9-7.3c-2.5-2.3-5.2-4.5-8-6.4c-4-2.7-8.3-4.9-12.7-6.7c-2.1-0.9-4.4-1.5-6.5-2.2
		c-0.2-0.1-0.5,0.1-0.7,0.1c-0.1,0-0.1,0-0.2,0c-0.5-0.2-1.1-0.3-1.7-0.3c-0.1,0-0.2,0-0.3-0.1c-2.2-0.5-4.3-1-6.5-1.1
		c-0.1,0-0.2,0-0.3-0.1c-0.6-0.2-1.2-0.1-1.8-0.1c-0.1,0-0.2,0-0.4-0.1c-2-0.3-4-0.5-6-0.5c-3,0-5.9,0.5-8.9,0.6
		c-1.4,0-2.6,0.6-4,0.6c-0.1,0-0.1,0-0.2,0c-3.2,0.1-6.1,1.3-9.1,2.3c-0.9,0.3-1.8,0.7-2.7,0.9c-0.1-0.1-0.1-0.1-0.1-0.2
		c0.1-0.1,0.2-0.1,0.3-0.2c0.6-0.2,1.3-0.5,1.9-0.7c0.4-0.2,0.8-0.3,1.2-0.5c2.1-0.7,4.2-1.3,6.4-1.8c1.8-0.4,3.5-0.8,5.4-0.9
		C466.6,30.6,467,30.2,467.5,30.5z"/>
	<path class="st23" d="M540.2,77.8c-0.5-0.9-1-1.8-1-2.9C540,75.7,540.2,76.7,540.2,77.8z"/>
	<path class="st23" d="M542.9,101.8c0.1-1.3-0.2-2.6,0.2-3.8C543.4,99.2,543.2,100.5,542.9,101.8z"/>
	<path class="st23" d="M543.1,97.7c-0.2-1-0.5-1.9,0-2.9C542.9,95.8,543.8,96.7,543.1,97.7z"/>
	<path class="st23" d="M498.2,33.8c-0.9-0.3-1.8-0.5-2.6-1C496.6,33,497.5,33.1,498.2,33.8z"/>
	<path class="st23" d="M542.6,104.6c0-0.8,0-1.6,0.2-2.4C543.4,103.1,542.9,103.9,542.6,104.6z"/>
	<path class="st23" d="M541.2,114c0-0.8,0-1.7,0.5-2.4C541.7,112.4,541.7,113.3,541.2,114z"/>
	<path class="st23" d="M539,74.2c-0.7-0.5-0.7-1.2-0.7-1.9C538.8,72.8,539,73.5,539,74.2z"/>
	<path class="st23" d="M542.9,92.9c0-0.6-0.6-1.1,0-1.7C542.9,91.8,543.4,92.3,542.9,92.9z"/>
	<path class="st23" d="M542.4,88.6c-0.2-0.4-0.5-0.8,0-1.2C542.8,87.8,542.8,88.2,542.4,88.6z"/>
	<path class="st23" d="M541.7,111.4c0-0.6,0.1-1.2,0.5-1.7C542.2,110.3,542.1,110.9,541.7,111.4z"/>
	<path class="st23" d="M506.2,37.2c-0.6,0-1.1-0.2-1.4-0.7C505.3,36.6,505.8,36.8,506.2,37.2z"/>
	<path class="st23" d="M538.3,72.2c-0.4-0.4-0.6-0.9-0.7-1.4C538.2,71.1,538.3,71.6,538.3,72.2z"/>
	<path class="st23" d="M542.6,90.5c0.2-0.5-0.5-1,0-1.4C542.8,89.5,543.1,90,542.6,90.5z"/>
	<path class="st23" d="M540,118.1c0-0.5,0.1-1,0.5-1.4C540.5,117.2,540.5,117.7,540,118.1z"/>
	<path class="st23" d="M542.6,106.3c-0.5-0.4-0.2-0.8,0-1.2C543.2,105.5,542.6,105.9,542.6,106.3z"/>
	<path class="st23" d="M540.5,116.2c0.1-0.4,0.2-0.9,0.5-1.2C541,115.4,541,115.9,540.5,116.2z"/>
	<path class="st23" d="M536.4,68.2c-0.4-0.3-0.5-0.7-0.5-1.2C536.3,67.3,536.4,67.7,536.4,68.2z"/>
	<path class="st23" d="M540.7,79.7c-0.4-0.3-0.2-0.6-0.2-1C540.7,79,541.1,79.2,540.7,79.7z"/>
	<path class="st23" d="M542.2,86.6c0.1-0.3-0.4-0.6,0-1C542.3,86,542.6,86.3,542.2,86.6z"/>
	<path class="st23" d="M541.9,84.2c-0.3-0.3-0.4-0.6-0.2-1C542,83.5,541.9,83.9,541.9,84.2z"/>
	<path class="st23" d="M541.2,80.9c-0.3-0.2-0.7-0.3-0.2-0.7C541.2,80.3,541.2,80.6,541.2,80.9z"/>
	<path class="st23" d="M484.1,30.5c-0.4,0-0.8,0-1.2,0C483.3,30.1,483.7,30.1,484.1,30.5z"/>
	<path class="st26" d="M481.9,31c0.1,0,0.2,0,0.2,0c0.6,0.2,1.3,0.1,1.9,0.2c2.3,0.3,4.7,0.7,7,1.2c0.6,0.2,1.3,0.1,1.9,0.5v0
		c2.2,0.8,4.3,1.5,6.5,2.3c3.7,1.4,7.2,3.2,10.6,5.3c1.8,1.1,3.6,2.3,5.2,3.7c-1.5-0.4-2.5-1.6-3.8-2.3c-2.7-1.6-5.4-3.3-8.3-4.7
		c-3-1.4-6.1-2.4-9.2-3.4c-2.6-0.8-5.3-1.4-8.1-1.7c-1.6-0.2-3.3-0.5-4.9-0.6c-2.4-0.1-4.7-0.5-7.1-0.2c-1.8,0.2-3.7,0.1-5.5,0.3
		c-3.6,0.5-7.2,1-10.8,2c-1.1,0.3-2.2,0.9-3.3,1.4c-1.3-0.1-2.4,0.7-3.6,1.1c-0.6,0.2-1.2,0.6-1.9,0.6c1.4-0.9,2.9-1.4,4.4-2
		c2.9-1.1,5.9-2,9-2.6c0.2,0,0.3-0.2,0.5-0.2c0,0,0,0,0,0c3.1-0.6,6.2-0.8,9.3-1.2c3.2-0.3,6.2,0,9.4,0.1
		C481.5,30.8,481.7,30.8,481.9,31z"/>
	<path class="st26" d="M515.3,44.2c2.2,1.2,3.9,3.2,5.9,4.6c0.3,0.2,0.5,0.5,0.5,0.9c-1.7-0.7-2.8-2.2-4.1-3.3
		C516.8,45.7,515.7,45.3,515.3,44.2z"/>
	<path class="st26" d="M526.3,54.7c1.5,1.4,3,2.9,3.8,4.8c-1.3-0.8-1.9-2.3-2.9-3.4C526.9,55.7,526.3,55.4,526.3,54.7z"/>
	<path class="st26" d="M523.2,51.1c1.2,1,2.4,2.1,3.1,3.6C525,53.7,524,52.6,523.2,51.1z"/>
	<path class="st26" d="M522.2,50.2c0.3,0.2,0.6,0.4,0.7,0.7C522.5,50.9,522.3,50.6,522.2,50.2z"/>
	<path class="st26" d="M535,67.4c0.8,0.7,1.2,1.6,1.2,2.6C535.7,69.2,535.2,68.4,535,67.4z"/>
	<path class="st26" d="M534.2,66.2c0.5,0.3,0.8,0.6,0.7,1.2C534.6,67.1,534.3,66.8,534.2,66.2z"/>
	<path class="st43" d="M455,57.1c0.3-0.4,0.8-0.5,1-1c3.1-2,6.7-3,10.2-3.8c3.4-0.8,6.8-1.1,10.3-1c4,0.2,7.9,0.7,11.7,1.8
		c5.9,1.7,11.2,4.4,15.9,8.2c3,2.4,5.7,5.3,8.1,8.4c2.5,3.3,4.6,6.8,6.1,10.6c1.6,4.2,2.8,8.4,3,12.9c0.1,2,0.2,3.9,0.2,5.8
		c-0.2,4.7-0.8,9.4-2.5,13.9c-0.4,1.2-0.8,2.5-1.3,3.7c-0.1,0.3-0.2,0.5-0.5,0.6c-0.1-1,0.7-1.8,0.9-2.7c0.1-0.5,0.2-0.9,0.3-1.4
		c-0.3-0.3-0.2-0.6,0-1c1-2.3,1.4-4.7,1.8-7.2c0.6-3.7,0.6-7.5,0.5-11.2c-0.2-4.2-1.1-8.2-2.6-12.1c0-0.1-0.1-0.2-0.1-0.4
		c-0.1-0.4-0.2-0.8-0.4-1.1c-0.1-0.1-0.1-0.2-0.1-0.3c-0.8-1.8-1.7-3.6-2.7-5.3c-0.1-0.1-0.1-0.2-0.2-0.3c-0.2-0.4-0.4-0.8-0.6-1.1
		c-0.1-0.1-0.1-0.2-0.2-0.3c-3.9-5.8-8.8-10.7-14.8-14.4c-0.4-0.3-0.8-0.5-1.3-0.5c-0.8-0.2-1.5-0.5-2.2-0.9
		c-5.7-3.1-11.9-4.5-18.4-4.6c-4.2-0.1-8.4,0.1-12.4,1.2c-2.8,0.8-5.5,1.6-8,3C456.2,57.1,455.7,57.6,455,57.1z"/>
	<path class="st55" d="M518.6,112.6c-0.3,0.2-0.2,0.5-0.2,0.7c-0.5,0.2-0.6,0.7-0.7,1.2c-1,2.9-2.4,5.6-4,8.2
		c-0.1,0.1-0.2,0.1-0.3,0.2c-0.6-0.8,0.6-1.3,0.4-2c0.1-0.6,0.4-1.2,0.7-1.8c3.1-5.6,4.5-11.6,5-18c0.5-5.5-0.1-10.8-1.5-16.1
		c-1.3-4.7-3.5-9-6.3-13c-3.7-5.2-8.3-9.5-13.8-12.7c-5-2.9-10.3-4.8-16.1-5.6c-10.6-1.4-20.6,0.6-29.5,6.5
		c-6.3,4.2-11.4,9.7-14.9,16.5c-3.1,5.8-4.7,12.1-5.1,18.7c-0.4,6.2,0.6,12.1,2.3,17.9c0.4,1.2,1,2.3,1.3,3.5
		c0.4,1.8,1.5,3.2,2.3,4.8c0.3,0.6,0.9,1.1,0.6,1.8c-0.9-0.4-1.1-1.3-1.5-1.9c-1.7-3.4-3.5-6.8-4.4-10.5c-0.9-3.8-1.5-7.5-1.6-11.4
		c-0.2-7.4,1-14.4,4.2-21c0.1-0.3,0.1-0.6,0.1-0.9c0-0.4,0.2-0.7,0.5-1c0.6-0.8,1-1.8,1.4-2.6v0c4-6.3,9.1-11.5,15.4-15.6
		c0.9-0.1,1.5-0.7,2.2-1.2c0.5,0,0.9-0.2,1.2-0.4c4.3-2.4,9-3.6,13.9-4.2c6.9-0.8,13.6-0.3,20.1,2c1.7,0.6,3.5,1.1,5,2.1
		c0.8,0.5,1.7,1,2.7,1.2c4.2,2.5,7.9,5.6,11.2,9.2c1.8,1.9,3.4,4,4.9,6.2v0c0.2,0.4,0.4,0.8,0.7,1.2v0c1,1.9,1.9,3.8,2.9,5.8v0
		c0.2,0.4,0.1,0.9,0.5,1.2v0c0.9,2.8,1.8,5.5,2.2,8.4c0.6,4.4,0.7,8.8,0.3,13.2C520.3,106.3,519.5,109.4,518.6,112.6z"/>
	<path class="st55" d="M438.7,123.4c-0.9-1.7-1.8-3.4-2.7-5.1c-0.2-0.4-0.5-0.8-0.4-1.3c0.7,0,0.8,0.6,1,1.1c2.4,5,5.7,9.4,9.7,13.1
		c5.1,4.7,10.9,8.2,17.6,10.1c4,1.1,8,1.7,12.1,1.7c3.8,0,7.6-0.5,11.4-1.5c1.9-0.5,3.6-1.3,5.5-1.8c1,0,1.8-0.5,2.6-1
		c0.1-0.1,0.2-0.1,0.3-0.1c1-0.3,1.8-1.1,2.8-1.5c0.4-0.2,0.7-0.5,1.2-0.1c-1.7,1.4-3.6,2.2-5.5,3.2c-3.8,1.8-7.8,2.8-11.9,3.4
		c-3.5,0.5-7,0.5-10.5,0.2c-3.2-0.3-6.3-0.9-9.3-1.8c-4.3-1.3-8.3-3.4-12-6c-4.3-3-7.8-6.8-10.9-10.9
		C439.1,124.4,438.8,124,438.7,123.4z"/>
	<path class="st55" d="M499.7,136.8c-1,0.2-1.8,0.9-2.7,1.4c-0.4,0.3-0.9,0.6-1.4,0.5c-0.1-0.6,0.4-0.7,0.7-0.9
		c3.4-1.8,6.4-4.1,9.2-6.8c2.8-2.6,5.2-5.6,7.2-8.8c0.3-0.5,0.5-1.2,1.3-1.2c0.2,0.8-0.9,1.1-0.7,1.9c-0.2,0.5-0.6,1-1,1.4
		c-0.5,1.2-1.5,2.1-2.3,3.1c-2.2,2.7-4.6,5.1-7.4,7.2C501.8,135.4,500.9,136.4,499.7,136.8z"/>
	<path class="st55" d="M512.4,124.3c0.2-0.6,0.5-1.1,1-1.4C513.4,123.6,512.9,124,512.4,124.3z"/>
	<path class="st52" d="M505.7,47.8c-1.1-0.3-2-1-3-1.5c-5.8-3-11.9-5-18.3-6c-3.1-0.4-6.2-0.8-9.4-0.7c-12.2,0.3-23.2,4-33,11.4
		c-1.2,0.9-2.2,2.1-3.6,2.7c2-2.3,4.5-3.9,7-5.6c3.8-2.5,7.9-4.5,12.2-5.9c4.3-1.4,8.7-2.3,13.3-2.7c2.8-0.2,5.7-0.3,8.5-0.1
		c6.1,0.4,12.1,1.7,17.8,4c2.7,1.1,5.2,2.3,7.7,3.8C505.2,47.3,505.6,47.4,505.7,47.8z"/>
	<path class="st52" d="M438.5,53.8c-1.6,1.8-3.3,3.5-5,5c0-0.6,0.6-0.9,1-1.3C435.8,56.3,436.8,54.7,438.5,53.8z"/>
	<path class="st52" d="M433.4,58.8c-0.7,1.4-1.9,2.3-2.7,3.5c-0.5,0.7-0.9,1.5-1.6,2C430.2,62.2,431.7,60.4,433.4,58.8z"/>
	<path class="st52" d="M507.1,48.7c-0.6-0.2-1.1-0.5-1.4-1C506.3,47.9,506.8,48.1,507.1,48.7z"/>
	<path class="st47" d="M451,34.8c0,0.1,0,0.2,0,0.2c-0.7,0.7-1.6,0.9-2.4,1.2c-2.4,1-4.6,2.3-6.8,3.6c-2.6,1.5-5,3.3-7.4,5.2
		c-3.1,2.6-5.9,5.4-8.5,8.4c-2.1,2.4-4.2,4.9-5.8,7.7c-0.2,0.4-0.5,0.7-1,0.7c1.2-2.3,2.8-4.4,4.4-6.5c1.1-1.4,2.4-2.5,3.2-4.1
		c0.1-0.1,0.2-0.1,0.3-0.2c1.3-1.1,2.5-2.3,3.6-3.6c0.1-0.1,0.1-0.2,0.2-0.3c1.4-0.6,2.3-1.7,3.4-2.7c4-3.4,8.5-6,13.1-8.4
		c0.3-0.2,0.7-0.2,1-0.5c0.4-0.2,0.8-0.3,1.2-0.5c0.2-0.1,0.3-0.2,0.5-0.2C450.3,34.9,450.6,34.7,451,34.8z"/>
	<path class="st35" d="M452.9,58.3c-1.3,1.3-2.9,2.2-4.3,3.4c-2.5,2.1-4.9,4.3-6.9,6.9c-1.3,1.5-2.5,3.1-3.5,4.8
		c-0.1,0.2-0.4,0.4-0.6,0.6c0.5-1.7,1.7-2.9,2.8-4.3c3.4-4.3,7.3-8.1,11.9-11.1C452.4,58.5,452.7,58.4,452.9,58.3z"/>
	<path class="st35" d="M437.5,73.9c-0.3,1-0.6,2-1.4,2.6C436.4,75.6,436.8,74.7,437.5,73.9z"/>
	<path class="st23" d="M473.8,29.8c-0.7,0.5-1.4,0.1-2.2,0.2C472.3,29.5,473,29.9,473.8,29.8z"/>
	<path class="st23" d="M467.5,30.5c-0.5,0.1-1,0.2-1.4,0.2C466.5,30.3,466.9,30,467.5,30.5z"/>
	<path class="st23" d="M449.5,35.3c-0.3,0.4-0.7,0.5-1.2,0.5C448.6,35.4,449.1,35.3,449.5,35.3z"/>
	<path class="st23" d="M451,34.8c-0.3,0.2-0.6,0.3-1,0.2c0.3-0.4,0.7-0.5,1.2-0.5C451.1,34.6,451,34.7,451,34.8z"/>
	<path class="st23" d="M454.3,33.4c-0.3,0.4-0.7,0.5-1.2,0.5C453.4,33.5,453.9,33.3,454.3,33.4z"/>
	<path class="st23" d="M448.3,35.8c-0.2,0.4-0.5,0.5-1,0.5C447.6,35.9,447.9,35.8,448.3,35.8z"/>
	<path class="st51" d="M427,51.4c-0.1,0-0.2,0-0.2,0c0-0.2,0-0.3,0-0.5c0.5-0.4,1-0.8,1.4-1.2C428.3,50.7,427.4,50.8,427,51.4z"/>
	<path class="st23" d="M427,51.4c0.3-0.7,1.1-0.9,1.2-1.7c0.2-0.4,0.5-0.7,1-1c0.7-0.3,0.9-1.1,1.7-1.2
		C429.8,49.1,428.5,50.4,427,51.4z"/>
	<path class="st51" d="M430.8,47.5c-0.7,0.3-0.9,1.1-1.7,1.2c0.4-0.5,0.8-1,1.2-1.4c0.2,0,0.3,0,0.5,0
		C430.8,47.4,430.8,47.4,430.8,47.5z"/>
	<path class="st28" d="M481.9,31c-1.8,0.2-3.6-0.3-5.4-0.2c-4.2,0.1-8.3,0.3-12.4,1.2c-0.5,0.1-1,0-1.4,0.1c1.2-0.7,2.6-0.7,3.9-0.9
		c2.4-0.4,4.9-0.3,7.3-0.7c1.9-0.3,4-0.1,6,0.3C480.6,30.7,481.4,30.3,481.9,31z"/>
	<path class="st28" d="M491,32.4c-2.3-0.3-4.7-0.7-7-1.2C486.5,31.2,488.8,31.6,491,32.4z"/>
	<path class="st28" d="M493,32.9c-0.7,0-1.3-0.1-1.9-0.5C491.7,32.3,492.5,32.1,493,32.9z"/>
	<path class="st28" d="M484.1,31.2c-0.7,0.3-1.3,0-1.9-0.2C482.8,31.1,483.5,30.7,484.1,31.2z"/>
	<path class="st35" d="M518.6,112.6c0.5-2.4,1-4.9,1.5-7.3c0.2-0.9,0.4-1.9,0.4-2.8c-0.1-2.4,0.5-4.8,0.1-7.3
		c-0.3-1.8-0.2-3.6-0.5-5.4c-0.4-2.4-1-4.7-1.7-7c-0.1-0.4-0.3-0.8-0.2-1.3c1.3,2.7,1.9,5.5,2.4,8.4c0.7,3.7,0.6,7.4,0.4,11.1
		C520.8,104.9,520.2,108.8,518.6,112.6z"/>
	<path class="st35" d="M514.1,73.2c-1.5-1.4-2.5-3.2-3.9-4.8c-2.3-2.6-4.8-5.1-7.6-7.2c-1.5-1.2-3.3-2-4.6-3.3
		c1.6,0.6,3,1.6,4.3,2.7c4.4,3.4,8.3,7.4,11.5,12.1C513.9,72.7,514,73,514.1,73.2z"/>
	<path class="st35" d="M517.7,80.2c-0.9-1.2-1.5-2.5-2.1-3.8c-0.3-0.6-0.9-1.2-0.8-1.9C516,76.2,517.1,78.1,517.7,80.2z"/>
	<path class="st35" d="M514.8,74.4c-0.5-0.3-0.8-0.6-0.7-1.2C514.6,73.5,514.7,73.9,514.8,74.4z"/>
	<path class="st35" d="M518.2,81.4c-0.8-0.2-0.4-0.8-0.5-1.2C518.1,80.5,518.2,80.9,518.2,81.4z"/>
	<path class="st56" d="M514.1,121c-1.2,1.1-1.8,2.6-2.7,3.9c-4.1,5.5-9,10-14.9,13.2c-0.3,0.2-0.7,0.3-0.8,0.7
		c-0.9,0.4-1.7,0.9-2.6,1.2c-0.5-0.1-0.9,0.3-1.4,0.4c-4.5,1.7-9.1,2.5-14,2.7c-4.3,0.2-8.6-0.3-12.7-1.3c-3.4-0.8-6.7-2.2-9.8-3.9
		c-3.9-2.1-7.3-4.8-10.4-7.9c-3.2-3.3-5.9-7-8-11.1c-0.3-0.7-0.6-1.4-1.1-2c-0.6-2.1-1.6-4.1-2.1-6.2c-0.5-2-0.9-3.9-1.2-5.9
		c-0.3-2.3-0.6-4.6-0.5-6.9c0.2-4.2,0.6-8.3,1.8-12.3c1.5-5.4,3.9-10.4,7.3-14.9c2.8-3.7,6.1-6.8,9.7-9.6c3.6-2.8,7.6-4.8,12-6.1
		c3.4-1.1,7-1.7,10.6-1.9c5.4-0.3,10.7,0.3,15.9,1.9c7.9,2.5,14.6,7,20.1,13.2c4.2,4.7,7.4,10.1,9.1,16.2c0.8,3.1,1.5,6.1,1.7,9.4
		c0.2,3,0.1,6-0.1,8.9c-0.2,2.4-0.7,4.8-1.3,7.1c-0.8,3.6-2.2,6.9-4.1,10C514.2,120.2,514.2,120.6,514.1,121z"/>
	<path class="st55" d="M493,139.9c0.8-0.6,1.6-1.1,2.6-1.2C494.9,139.4,494,139.8,493,139.9z"/>
	<path class="st57" d="M519.1,97.2c0.2,6.2-0.8,11.9-2.9,17.3c-1.7,4.2-3.9,8.1-6.8,11.7c-3.1,3.8-6.6,7-10.7,9.7
		c-5.1,3.3-10.7,5.4-16.7,6.1c-2.5,0.3-4.9,0.6-7.4,0.4c-5.2-0.3-10.2-1.1-15-3.2c-6-2.6-11.2-6.3-15.6-11.1c-3-3.3-5.3-7-7.3-11
		c-2-4.1-3.1-8.5-3.7-12.9c-0.4-3.3-0.4-6.6-0.2-9.9c0.3-3.1,0.7-6.1,1.6-9c0.8-3,2-5.9,3.5-8.6c2.4-4.2,5.3-8,8.8-11.3
		c2.8-2.6,5.9-4.9,9.2-6.7c4.4-2.4,9.1-3.9,14.1-4.5c5.4-0.6,10.9-0.4,16.2,1c2.1,0.6,4.2,1.1,6.2,2c3.9,1.8,7.6,3.8,10.9,6.7
		c3.3,2.9,6.3,6.1,8.8,9.7c3.3,4.9,5.5,10.2,6.4,16C519,92.2,519.4,94.8,519.1,97.2z"/>
	<path class="st58" d="M518.7,97.9c0,4.1-0.6,8.6-1.9,13c-1.4,4.9-3.8,9.4-6.8,13.5c-3.5,4.8-7.8,8.8-12.9,11.8
		c-3.9,2.3-8.1,3.8-12.6,4.8c-2.9,0.6-5.8,0.8-8.8,0.8c-4.1,0-8.1-0.7-12.1-1.8c-5-1.5-9.4-3.8-13.5-6.9c-5-3.9-9.1-8.6-11.9-14.4
		c-0.9-1.8-1.8-3.5-2.5-5.4c-0.7-1.9-1.1-3.8-1.5-5.7c-0.8-3.6-1.2-7.3-0.9-11c0.3-5.5,1.2-10.9,3.5-16.1c1.7-4,4-7.6,6.7-10.9
		c2.3-2.8,4.9-5.2,7.8-7.3c1.8-1.4,3.7-2.7,5.7-3.6c4.1-1.9,8.4-3.5,12.9-3.9c2.3-0.2,4.6-0.6,6.9-0.4c3.6,0.2,7.1,0.7,10.6,1.6
		c3.7,0.9,7.1,2.6,10.4,4.5c2.3,1.3,4.4,3,6.4,4.8c3.5,3,6.2,6.6,8.6,10.4c1.3,2,2.2,4.2,3.1,6.4c1.4,3.6,2.1,7.3,2.5,11.1
		C518.6,94.6,518.6,96,518.7,97.9z"/>
	<path class="st59" d="M475.5,54.4c2.8,0.4,5.4,0.7,8,1c3.1,0.4,6.2,1.3,9,2.7c2.8,1.4,5.7,2.8,8.3,4.7c5.6,4.3,10.1,9.4,13.3,15.7
		c2.3,4.6,3.5,9.5,4,14.6c0.2,2.2,0.3,4.5,0.2,6.6c-0.2,3.2-0.6,6.5-1.5,9.6c-0.7,2.5-1.5,4.8-2.7,7.1c-1.5,3-3,6-5.1,8.6
		c-3.3,3.9-6.9,7.4-11.3,10.2c-4.7,2.9-9.8,4.7-15.2,5.6c-2.1,0.3-4.3,0.8-6.4,0.6c-3.1-0.2-6.2-0.5-9.2-1.1
		c-3.6-0.8-6.9-2.2-10.2-3.8c-3.9-1.9-7.3-4.5-10.4-7.5c-2.6-2.6-4.9-5.5-6.7-8.7c-2.8-5-4.9-10.3-5.4-16.2
		c-0.2-1.8-0.7-3.6-0.7-5.4c0-3.5,0.6-7,1.3-10.4c1.3-6.5,4.1-12.4,8.2-17.6c3.5-4.5,7.8-8.2,12.8-11c4.4-2.5,9.1-4.2,14.3-4.7
		C471.9,55,473.7,54.7,475.5,54.4z"/>
	<path class="st60" d="M481.7,139.7c-0.8,0.5-1.8,0.3-2.8,0.4c-2,0.4-3.9,0.3-5.9,0c-1.4-0.2-2.8-0.3-4.2-0.5
		c-3.7-0.5-7.2-1.7-10.6-3.3c-3.3-1.5-6.2-3.5-8.9-5.9c-3.2-2.8-5.9-6.1-8.2-9.7c-2.5-4-4.3-8.3-5.4-12.9c-0.3-1.5-0.9-3-0.8-4.4
		c0.1-1.7-0.3-3.3-0.3-5c0.1-1.7,0.2-3.5,0.2-5.3c0.1-1.9,0.5-3.9,1-5.7c0.8-3.2,1.9-6.3,3.5-9.2c1.7-3,3.5-6,5.8-8.5
		c5-5.4,10.7-9.7,17.8-12c2.5-0.8,5.1-1.4,7.7-1.7c2.8-0.3,5.6-0.4,8.5,0c3.5,0.5,7,0.9,10.3,2.1c3.4,1.3,6.7,2.9,9.7,5
		c2.1,1.5,4.2,3.1,5.9,4.9c5.9,6.2,10.1,13.3,11.4,21.8c0.3,2.1,0.8,4.2,0.5,6.4c-0.2,1-0.2,2.1,0.2,3.2c0.1,0.3,0.1,0.6,0,1
		c-0.7,5.7-1.7,11.3-4.4,16.6c-1.9,3.6-4,7-6.7,9.9c-3.9,4.2-8.4,7.6-13.7,9.9c-3.2,1.4-6.5,2.3-9.9,2.9
		C482.2,139.8,482.1,139.9,481.7,139.7z"/>
	<path class="st61" d="M476.2,138.5c-8.7,0.2-16.2-2.6-23.1-7.3c-5.1-3.5-8.9-8.1-11.7-13.6c-2.2-4.2-3.8-8.5-4.5-13.2
		c-0.5-3.7-0.6-7.4-0.2-11.1c0.5-4.7,1.8-9,3.8-13.2c1.4-3,3.2-5.7,5.2-8.3c5-6.2,11.5-10.4,19.1-12.8c3-0.9,6-1.3,9.1-1.5
		c5.1-0.2,10.1,0.4,14.9,2.2c4.8,1.8,9.3,4.3,13.2,7.7c3.9,3.4,6.9,7.4,9.2,11.9c2,3.9,3.5,8,3.8,12.5c0.2,1.8,0.8,3.7,0.6,5.5
		c-0.5,6.1-1.3,12.2-4.1,17.9c-2.4,4.8-5.3,9.3-9.2,13c-2.2,2-4.5,3.8-7.1,5.2c-3.8,2-7.6,3.8-11.8,4.5
		C480.9,138.3,478.4,138.6,476.2,138.5z"/>
	<path class="st2" d="M476.5,135.9c-19.9,0.3-34.1-15.1-36.7-30.7c-3.1-18.8,6.4-35,21.9-42.2c6-2.8,12.5-3.5,19-2.5
		c14.6,2.2,24.8,10.5,29.9,24.1c5,13.6,2.5,26.6-6.7,37.9c-5.1,6.3-11.5,10.6-19.5,12.4C481.7,135.6,478.9,135.9,476.5,135.9z"/>
	<path class="st1" d="M476.2,127c-14.4,0.3-24.6-10.9-26.6-22.3c-1.5-8.3-0.6-16.2,4.1-23.3c4.1-6.3,9.7-10.7,17.3-11.9
		c8.6-1.4,16.4,0.5,23,6.3c6,5.3,8.8,12.1,9.3,20c0.3,6.5-0.8,12.7-4.2,18.4C493.9,122.4,485.7,127,476.2,127z"/>
</g>
</svg>
